<?xml version="1.0" encoding="utf-8"?>
<svg viewBox="-1371.023 -19.614 543.151 539.228" xmlns="http://www.w3.org/2000/svg">
  <g>
    <g id="Calque_1" data-name="Calque 1" transform="matrix(0.983509, 0, 0, 0.951905, -1367.797363, -60.85302)" style="">
      <g id="LOGO-ICON-LEFT">
        <path id="LOGOTYPE" class="cls-1" d="M 745.6 558.59 L 745.6 399.43 C 755.19 411.88 768.15 421.47 784.47 428.2 C 800.79 434.93 818.95 438.3 838.95 438.3 C 865.88 438.3 889.66 432.13 910.27 419.78 C 930.88 407.43 947.05 389.94 958.78 367.29 C 970.51 344.64 976.38 318.73 976.38 289.55 C 976.38 260.37 970.51 234.61 958.78 212.27 C 947.05 189.93 930.88 172.58 910.27 160.24 C 889.66 147.89 866.19 141.72 839.87 141.72 C 818.04 141.72 798.24 146.11 780.49 154.88 C 762.74 163.65 748.86 175.59 738.86 190.69 L 733.66 150.59 L 676.12 150.59 L 676.12 558.59 L 745.6 558.59 Z M 825.79 374.94 C 802.53 374.94 783.65 367.29 769.17 351.98 C 754.68 336.68 747.44 316.27 747.44 290.76 C 747.44 265.25 754.73 244.08 769.32 228.47 C 783.91 212.86 802.94 205.06 826.4 205.06 C 849.86 205.06 868.79 212.86 883.18 228.47 C 897.57 244.08 904.76 264.64 904.76 290.14 C 904.76 315.64 897.57 335.64 883.18 351.36 C 868.79 367.07 849.66 374.93 825.79 374.93 L 825.79 374.94 Z M 1159.48 438.3 C 1181.52 438.3 1201.46 434.01 1219.32 425.44 C 1237.17 416.87 1250.9 405.24 1260.49 390.55 L 1260.49 430.03 L 1327.52 430.03 L 1327.52 150.59 L 1269.06 150.59 L 1263.55 186.09 C 1253.55 172.01 1240.03 161.09 1222.99 153.34 C 1205.95 145.59 1186.82 141.71 1165.6 141.71 C 1138.46 141.71 1114.43 147.88 1093.52 160.23 C 1072.6 172.58 1056.33 190.12 1044.7 212.88 C 1033.07 235.63 1027.25 261.8 1027.25 291.39 C 1027.25 320.98 1032.76 346.53 1043.78 368.67 C 1054.8 390.81 1070.36 407.95 1090.46 420.09 C 1110.56 432.23 1133.57 438.3 1159.48 438.3 Z M 1176.93 374.94 C 1153.67 374.94 1134.79 367.08 1120.31 351.37 C 1105.82 335.66 1098.58 315.05 1098.58 289.54 C 1098.58 264.03 1105.77 243.48 1120.16 227.87 C 1134.55 212.26 1153.68 204.46 1177.55 204.46 C 1201.42 204.46 1220.55 212.16 1234.94 227.57 C 1249.33 242.98 1256.52 263.43 1256.52 288.94 C 1256.52 314.45 1249.12 335.16 1234.33 351.07 C 1219.54 366.99 1200.41 374.94 1176.94 374.94 L 1176.93 374.94 Z M 1479.7 430.03 L 1479.7 289.54 C 1479.7 264.03 1486.48 244.29 1500.05 230.31 C 1513.62 216.33 1532.95 209.34 1558.05 209.34 C 1561.52 209.34 1567.03 209.75 1574.58 210.56 L 1574.58 150.57 C 1566.21 148.94 1557.44 148.02 1548.26 147.82 C 1531.12 147.82 1516.33 151.49 1503.88 158.84 C 1491.43 166.19 1483.17 176.8 1479.09 190.67 L 1472.97 150.57 L 1409.61 150.57 L 1409.61 430.04 L 1479.7 430.04 L 1479.7 430.03 Z M 1876.12 93.97 C 1890 93.97 1901.52 89.38 1910.71 80.2 C 1919.9 71.02 1924.48 60 1924.48 47.14 C 1924.48 34.28 1919.89 22.45 1910.71 13.47 C 1901.53 4.49 1890 0 1876.12 0 C 1862.24 0 1850.1 4.49 1840.92 13.47 C 1831.74 22.45 1827.15 33.67 1827.15 47.14 C 1827.15 60.61 1831.84 71.01 1841.23 80.2 C 1850.62 89.38 1862.25 93.97 1876.12 93.97 Z M 1737.47 430.04 L 1737.47 208.13 L 1840.31 208.13 L 1840.31 430.04 L 1910.71 430.04 L 1910.71 150.59 L 1737.47 150.59 L 1737.47 77.13 L 1667.38 77.13 L 1667.38 150.59 L 1614.12 150.59 L 1614.12 208.13 L 1667.38 208.13 L 1667.38 430.04 L 1737.47 430.04 Z M 2461.16 438.3 C 2495.85 438.3 2525.74 429.53 2550.84 411.98 C 2575.94 394.43 2591.55 371.37 2597.67 342.81 L 2529.41 342.81 C 2524.92 354.64 2516.61 363.88 2504.46 370.51 C 2492.32 377.14 2477.88 380.46 2461.15 380.46 C 2438.91 380.46 2420.8 373.98 2406.82 361.02 C 2392.84 348.06 2385.45 330.97 2384.63 309.75 L 2593.99 309.75 C 2596.03 300.57 2597.05 289.04 2597.05 275.16 C 2597.05 249.25 2591.34 226.29 2579.91 206.29 C 2568.48 186.29 2552.31 170.53 2531.4 159 C 2510.48 147.47 2486.46 141.71 2459.32 141.71 C 2432.18 141.71 2407.13 147.78 2385.4 159.92 C 2363.67 172.06 2346.63 189.2 2334.29 211.34 C 2321.94 233.48 2315.77 259.34 2315.77 288.93 C 2315.77 318.52 2321.84 344.28 2333.98 366.83 C 2346.12 389.38 2363.16 406.93 2385.09 419.48 C 2407.03 432.03 2432.38 438.3 2461.15 438.3 L 2461.16 438.3 Z M 2525.74 262.61 L 2385.86 262.61 C 2386.68 243.43 2393.72 228.07 2406.98 216.55 C 2420.24 205.02 2437.08 199.26 2457.48 199.26 C 2477.88 199.26 2493.75 204.92 2506.3 216.25 C 2518.85 227.57 2525.33 243.03 2525.74 262.62 L 2525.74 262.61 Z M 2790.25 438.3 C 2824.94 438.3 2854.83 429.53 2879.93 411.98 C 2905.03 394.43 2920.64 371.37 2926.76 342.81 L 2858.5 342.81 C 2854.01 354.64 2845.7 363.88 2833.55 370.51 C 2821.41 377.14 2806.97 380.46 2790.24 380.46 C 2768 380.46 2749.89 373.98 2735.91 361.02 C 2721.93 348.06 2714.54 330.97 2713.72 309.75 L 2923.08 309.75 C 2925.12 300.57 2926.14 289.04 2926.14 275.16 C 2926.14 249.25 2920.43 226.29 2909 206.29 C 2897.57 186.29 2881.4 170.53 2860.49 159 C 2839.57 147.47 2815.55 141.71 2788.41 141.71 C 2761.27 141.71 2736.22 147.78 2714.49 159.92 C 2692.76 172.06 2675.72 189.2 2663.38 211.34 C 2651.03 233.48 2644.86 259.34 2644.86 288.93 C 2644.86 318.52 2650.93 344.28 2663.07 366.83 C 2675.21 389.38 2692.25 406.93 2714.18 419.48 C 2736.12 432.03 2761.47 438.3 2790.24 438.3 L 2790.25 438.3 Z M 2854.83 262.61 L 2714.95 262.61 C 2715.77 243.43 2722.81 228.07 2736.07 216.55 C 2749.33 205.02 2766.17 199.26 2786.57 199.26 C 2806.97 199.26 2822.84 204.92 2835.39 216.25 C 2847.94 227.57 2854.42 243.03 2854.83 262.62 L 2854.83 262.61 Z M 3059.66 558.59 L 3059.66 399.43 C 3069.25 411.88 3082.21 421.47 3098.53 428.2 C 3114.85 434.93 3133.01 438.3 3153.01 438.3 C 3179.94 438.3 3203.72 432.13 3224.33 419.78 C 3244.94 407.43 3261.11 389.94 3272.84 367.29 C 3284.57 344.64 3290.44 318.73 3290.44 289.55 C 3290.44 260.37 3284.57 234.61 3272.84 212.27 C 3261.11 189.93 3244.94 172.58 3224.33 160.24 C 3203.72 147.89 3180.25 141.72 3153.93 141.72 C 3132.1 141.72 3112.3 146.11 3094.55 154.88 C 3076.8 163.65 3062.92 175.59 3052.92 190.69 L 3047.72 150.59 L 2990.18 150.59 L 2990.18 558.59 L 3059.66 558.59 Z M 3139.85 374.94 C 3116.59 374.94 3097.71 367.29 3083.23 351.98 C 3068.74 336.68 3061.5 316.27 3061.5 290.76 C 3061.5 265.25 3068.8 244.08 3083.38 228.47 C 3097.97 212.86 3117 205.06 3140.46 205.06 C 3163.92 205.06 3182.85 212.86 3197.24 228.47 C 3211.63 244.08 3218.82 264.64 3218.82 290.14 C 3218.82 315.64 3211.63 335.64 3197.24 351.36 C 3182.85 367.08 3163.72 374.93 3139.85 374.93 L 3139.85 374.94 Z" style="fill: rgb(255, 255, 255);"/>
        <path class="cls-1" d="M271.07,48.85C121.36,48.85,0,170.21,0,319.92c0,47.9,12.47,92.87,34.28,131.93l148.24-152.31,73.45,75.84,143.95-149.8,30.54,29.35-174.36,181.46-73.65-76.05-124.09,127.49c49.65,62.8,126.44,103.15,212.71,103.15,149.71,0,271.07-121.36,271.07-271.07S420.78,48.85,271.07,48.85Z" style="fill: rgb(255, 255, 255);"/>
        <path d="M 772.423 475.507 L 801.442 475.507 L 801.442 510.995 L 831.87 475.507 L 870.432 475.507 L 836.225 510.932 L 871.97 569.416 L 836.225 569.416 L 816.432 530.789 L 801.442 546.483 L 801.442 569.416 L 772.423 569.416 L 772.423 475.507 Z" style="fill: rgb(51, 50, 92); white-space: pre;"/>
        <path d="M 958.161 541.864 L 905.89 541.864 C 906.359 546.049 907.492 549.166 909.285 551.217 C 911.805 554.163 915.093 555.636 919.15 555.636 C 921.712 555.636 924.146 554.996 926.453 553.715 C 927.862 552.904 929.378 551.473 931.001 549.422 L 956.688 551.793 C 952.759 558.626 948.019 563.526 942.467 566.494 C 936.915 569.463 928.951 570.946 918.573 570.946 C 909.563 570.946 902.474 569.676 897.306 567.135 C 892.139 564.594 887.858 560.559 884.462 555.028 C 881.068 549.497 879.37 542.996 879.37 535.522 C 879.37 524.89 882.776 516.284 889.587 509.706 C 896.399 503.13 905.805 499.842 917.805 499.842 C 927.543 499.842 935.229 501.316 940.866 504.262 C 946.503 507.21 950.795 511.48 953.742 517.073 C 956.688 522.668 958.161 529.95 958.161 538.918 L 958.161 541.864 Z M 931.641 529.372 C 931.129 524.334 929.773 520.725 927.573 518.547 C 925.375 516.37 922.481 515.28 918.893 515.28 C 914.751 515.28 911.442 516.924 908.964 520.212 C 907.385 522.263 906.382 525.316 905.954 529.372 L 931.641 529.372 Z M 1031.115 541.864 L 978.843 541.864 C 979.313 546.049 980.445 549.166 982.238 551.217 C 984.759 554.163 988.048 555.636 992.104 555.636 C 994.667 555.636 997.1 554.996 999.406 553.715 C 1000.816 552.904 1002.332 551.473 1003.955 549.422 L 1029.642 551.793 C 1025.713 558.626 1020.974 563.526 1015.421 566.494 C 1009.87 569.463 1001.905 570.946 991.528 570.946 C 982.517 570.946 975.427 569.676 970.26 567.135 C 965.093 564.594 960.812 560.559 957.417 555.028 C 954.022 549.497 952.324 542.996 952.324 535.522 C 952.324 524.89 955.729 516.284 962.541 509.706 C 969.353 503.13 978.759 499.842 990.758 499.842 C 1000.496 499.842 1008.182 501.316 1013.819 504.262 C 1019.456 507.21 1023.749 511.48 1026.695 517.073 C 1029.643 522.668 1031.115 529.95 1031.115 538.918 L 1031.115 541.864 Z M 1004.595 529.372 C 1004.083 524.334 1002.727 520.725 1000.528 518.547 C 998.328 516.37 995.435 515.28 991.847 515.28 C 987.705 515.28 984.396 516.924 981.919 520.212 C 980.338 522.263 979.335 525.316 978.908 529.372 L 1004.595 529.372 Z M 1028.673 595.288 L 1028.673 501.379 L 1053.079 501.379 L 1053.079 511.436 C 1056.453 507.209 1059.549 504.348 1062.367 502.853 C 1066.169 500.846 1070.375 499.842 1074.987 499.842 C 1084.084 499.842 1091.119 503.323 1096.094 510.283 C 1101.07 517.245 1103.557 525.849 1103.557 536.099 C 1103.557 547.416 1100.845 556.054 1095.421 562.01 C 1089.998 567.968 1083.144 570.946 1074.859 570.946 C 1070.845 570.946 1067.182 570.264 1063.873 568.897 C 1060.563 567.53 1057.606 565.502 1055.001 562.811 L 1055.001 595.288 L 1028.673 595.288 Z M 1054.809 535.586 C 1054.809 540.967 1055.941 544.961 1058.204 547.566 C 1060.468 550.17 1063.329 551.473 1066.788 551.473 C 1069.82 551.473 1072.361 550.224 1074.41 547.725 C 1076.461 545.227 1077.485 540.989 1077.485 535.009 C 1077.485 529.501 1076.417 525.455 1074.282 522.871 C 1072.147 520.287 1069.543 518.996 1066.467 518.996 C 1063.136 518.996 1060.36 520.298 1058.14 522.903 C 1055.92 525.508 1054.809 529.735 1054.809 535.586 Z M 1102.474 475.5 L 1128.545 475.5 L 1128.545 493.244 L 1102.474 493.244 L 1102.474 475.5 Z M 1102.474 501.379 L 1128.545 501.379 L 1128.545 569.409 L 1102.474 569.409 L 1102.474 501.379 Z M 1130.658 501.379 L 1154.936 501.379 L 1154.936 512.461 C 1158.567 507.935 1162.239 504.7 1165.955 502.757 C 1169.671 500.814 1174.197 499.842 1179.534 499.842 C 1186.752 499.842 1192.4 501.988 1196.478 506.28 C 1200.557 510.572 1202.595 517.202 1202.595 526.17 L 1202.595 569.409 L 1176.396 569.409 L 1176.396 531.999 C 1176.396 527.729 1175.606 524.708 1174.025 522.934 C 1172.446 521.163 1170.225 520.277 1167.364 520.277 C 1164.204 520.277 1161.642 521.472 1159.677 523.863 C 1157.713 526.256 1156.73 530.548 1156.73 536.739 L 1156.73 569.409 L 1130.658 569.409 L 1130.658 501.379 Z M 1250.952 501.379 L 1275.357 501.379 L 1275.357 565.63 L 1275.422 568.64 C 1275.422 572.911 1274.514 576.979 1272.699 580.843 C 1270.884 584.708 1268.472 587.837 1265.461 590.228 C 1262.45 592.619 1258.628 594.349 1253.994 595.416 C 1249.36 596.485 1244.055 597.018 1238.076 597.018 C 1224.411 597.018 1215.026 594.969 1209.922 590.868 C 1204.819 586.769 1202.267 581.282 1202.267 574.406 C 1202.267 573.552 1202.311 572.399 1202.395 570.946 L 1227.698 573.829 C 1228.339 576.178 1229.321 577.801 1230.645 578.697 C 1232.567 580.021 1234.98 580.683 1237.883 580.683 C 1241.641 580.683 1244.449 579.68 1246.307 577.673 C 1248.165 575.666 1249.094 572.164 1249.094 567.167 L 1249.094 556.854 C 1246.531 559.886 1243.969 562.085 1241.407 563.451 C 1237.393 565.586 1233.058 566.654 1228.403 566.654 C 1219.307 566.654 1211.962 562.683 1206.367 554.74 C 1202.395 549.103 1200.409 541.651 1200.409 532.383 C 1200.409 521.793 1202.972 513.722 1208.097 508.169 C 1213.222 502.618 1219.926 499.842 1228.211 499.842 C 1233.507 499.842 1237.873 500.739 1241.31 502.532 C 1244.749 504.327 1247.962 507.294 1250.952 511.436 L 1250.952 501.379 Z M 1226.417 534.369 C 1226.417 539.28 1227.463 542.921 1229.556 545.291 C 1231.649 547.661 1234.404 548.846 1237.82 548.846 C 1241.066 548.846 1243.788 547.618 1245.987 545.163 C 1248.186 542.708 1249.285 539.003 1249.285 534.049 C 1249.285 529.095 1248.133 525.305 1245.827 522.678 C 1243.52 520.053 1240.702 518.739 1237.371 518.739 C 1234.041 518.739 1231.382 519.946 1229.396 522.358 C 1227.41 524.771 1226.417 528.775 1226.417 534.369 Z M 1344.476 475.5 L 1344.476 501.379 L 1358.824 501.379 L 1358.824 520.405 L 1344.476 520.405 L 1344.476 544.554 C 1344.476 547.459 1344.754 549.38 1345.308 550.319 C 1346.163 551.772 1347.657 552.498 1349.792 552.498 C 1351.715 552.498 1354.405 551.942 1357.864 550.832 L 1359.785 568.832 C 1353.337 570.241 1347.315 570.946 1341.721 570.946 C 1335.23 570.946 1330.447 570.113 1327.372 568.448 C 1324.298 566.783 1322.023 564.252 1320.55 560.857 C 1319.078 557.463 1318.34 551.965 1318.34 544.362 L 1318.34 520.405 L 1308.732 520.405 L 1308.732 501.379 L 1318.34 501.379 L 1318.34 488.888 L 1344.476 475.5 Z M 1349.722 501.379 L 1374.128 501.379 L 1374.128 512.525 C 1376.477 507.701 1378.901 504.379 1381.399 502.564 C 1383.897 500.75 1386.983 499.842 1390.655 499.842 C 1394.5 499.842 1398.706 501.038 1403.275 503.429 L 1395.203 522.006 C 1392.129 520.725 1389.695 520.084 1387.901 520.084 C 1384.485 520.084 1381.837 521.494 1379.958 524.312 C 1377.268 528.284 1375.922 535.715 1375.922 546.604 L 1375.922 569.409 L 1349.722 569.409 L 1349.722 501.379 Z M 1416.916 523.415 L 1391.997 520.789 C 1392.937 516.433 1394.293 513.006 1396.065 510.507 C 1397.839 508.009 1400.389 505.843 1403.72 504.006 C 1406.112 502.682 1409.4 501.657 1413.586 500.93 C 1417.771 500.205 1422.297 499.842 1427.166 499.842 C 1434.981 499.842 1441.258 500.28 1445.998 501.155 C 1450.739 502.031 1454.69 503.857 1457.85 506.632 C 1460.071 508.554 1461.822 511.277 1463.102 514.8 C 1464.384 518.323 1465.024 521.686 1465.024 524.889 L 1465.024 554.931 C 1465.024 558.135 1465.227 560.643 1465.632 562.459 C 1466.039 564.274 1466.924 566.59 1468.291 569.409 L 1443.821 569.409 C 1442.839 567.659 1442.198 566.324 1441.899 565.405 C 1441.6 564.487 1441.302 563.046 1441.002 561.081 C 1437.586 564.37 1434.191 566.718 1430.817 568.128 C 1426.205 570.007 1420.846 570.946 1414.739 570.946 C 1406.625 570.946 1400.465 569.067 1396.258 565.309 C 1392.051 561.551 1389.948 556.918 1389.948 551.408 C 1389.948 546.241 1391.464 541.992 1394.496 538.661 C 1397.529 535.331 1403.123 532.853 1411.279 531.23 C 1421.059 529.267 1427.401 527.889 1430.304 527.099 C 1433.209 526.309 1436.284 525.274 1439.529 523.991 C 1439.529 520.789 1438.867 518.547 1437.543 517.266 C 1436.219 515.985 1433.892 515.343 1430.561 515.343 C 1426.291 515.343 1423.087 516.027 1420.952 517.394 C 1419.287 518.462 1417.941 520.469 1416.916 523.415 Z M 1439.529 537.123 C 1435.942 538.405 1432.205 539.536 1428.318 540.518 C 1423.024 541.928 1419.671 543.316 1418.262 544.683 C 1416.81 546.092 1416.084 547.694 1416.084 549.487 C 1416.084 551.537 1416.799 553.213 1418.229 554.515 C 1419.661 555.819 1421.764 556.47 1424.539 556.47 C 1427.443 556.47 1430.144 555.765 1432.642 554.355 C 1435.141 552.945 1436.913 551.227 1437.96 549.198 C 1439.006 547.17 1439.529 544.533 1439.529 541.287 L 1439.529 537.123 Z M 1516.853 542.825 L 1541.643 545.643 C 1540.277 550.81 1538.035 555.285 1534.917 559.064 C 1531.8 562.843 1527.818 565.779 1522.97 567.871 C 1518.123 569.964 1511.963 571.011 1504.489 571.011 C 1497.273 571.011 1491.262 570.338 1486.457 568.992 C 1481.654 567.647 1477.521 565.47 1474.061 562.459 C 1470.603 559.448 1467.891 555.914 1465.927 551.857 C 1463.963 547.8 1462.98 542.419 1462.98 535.714 C 1462.98 528.711 1464.176 522.882 1466.567 518.226 C 1468.319 514.81 1470.71 511.746 1473.742 509.035 C 1476.774 506.323 1479.892 504.305 1483.094 502.981 C 1488.177 500.888 1494.689 499.842 1502.631 499.842 C 1513.736 499.842 1522.202 501.828 1528.03 505.799 C 1533.86 509.771 1537.949 515.579 1540.298 523.223 L 1515.763 526.49 C 1514.995 523.586 1513.597 521.397 1511.568 519.925 C 1509.54 518.452 1506.818 517.714 1503.4 517.714 C 1499.088 517.714 1495.597 519.262 1492.926 522.358 C 1490.258 525.455 1488.923 530.142 1488.923 536.419 C 1488.923 542.013 1490.248 546.263 1492.895 549.166 C 1495.543 552.07 1498.917 553.522 1503.016 553.522 C 1506.433 553.522 1509.304 552.647 1511.632 550.896 C 1513.959 549.146 1515.7 546.456 1516.853 542.825 Z M 1531.707 475.5 L 1558.356 475.5 L 1558.356 523.928 L 1577.829 501.379 L 1609.922 501.379 L 1585.516 525.209 L 1611.331 569.409 L 1581.929 569.409 L 1568.157 542.12 L 1558.356 551.729 L 1558.356 569.409 L 1531.707 569.409 L 1531.707 475.5 Z M 1630.55 535.586 C 1630.55 525.209 1634.051 516.657 1641.055 509.931 C 1648.059 503.205 1657.519 499.842 1669.433 499.842 C 1683.056 499.842 1693.349 503.792 1700.309 511.692 C 1705.904 518.056 1708.701 525.893 1708.701 535.202 C 1708.701 545.665 1705.232 554.238 1698.292 560.922 C 1691.352 567.605 1681.754 570.946 1669.497 570.946 C 1658.565 570.946 1649.726 568.171 1642.978 562.619 C 1634.693 555.744 1630.55 546.733 1630.55 535.586 Z M 1656.686 535.522 C 1656.686 541.587 1657.914 546.071 1660.369 548.975 C 1662.825 551.879 1665.91 553.331 1669.625 553.331 C 1673.383 553.331 1676.469 551.9 1678.882 549.038 C 1681.295 546.177 1682.501 541.587 1682.501 535.266 C 1682.501 529.373 1681.284 524.985 1678.85 522.102 C 1676.417 519.22 1673.405 517.778 1669.818 517.778 C 1666.018 517.778 1662.879 519.241 1660.401 522.166 C 1657.925 525.092 1656.686 529.544 1656.686 535.522 Z M 1735.725 501.379 L 1748.152 501.379 L 1748.152 520.468 L 1735.725 520.468 L 1735.725 569.409 L 1709.59 569.409 L 1709.59 520.468 L 1699.853 520.468 L 1699.853 501.379 L 1709.59 501.379 L 1709.59 498.305 C 1709.59 495.528 1709.889 492.475 1710.486 489.144 C 1711.085 485.814 1712.205 483.091 1713.849 480.977 C 1715.493 478.863 1717.8 477.155 1720.767 475.852 C 1723.736 474.551 1728.081 473.899 1733.804 473.899 C 1738.373 473.899 1745.014 474.433 1753.726 475.5 L 1750.843 491.258 C 1747.726 490.746 1745.206 490.489 1743.284 490.489 C 1740.935 490.489 1739.248 490.885 1738.223 491.674 C 1737.199 492.464 1736.473 493.714 1736.046 495.421 C 1735.832 496.361 1735.725 498.347 1735.725 501.379 Z M 1772.047 501.379 L 1799.593 501.379 L 1813.621 546.668 L 1826.624 501.379 L 1852.312 501.379 L 1825.343 574.085 C 1822.269 582.37 1819.131 587.965 1815.927 590.868 C 1811.401 594.969 1804.504 597.018 1795.236 597.018 C 1791.478 597.018 1785.671 596.506 1777.813 595.481 L 1775.763 577.288 C 1779.521 578.484 1783.706 579.082 1788.318 579.082 C 1791.393 579.082 1793.881 578.377 1795.781 576.968 C 1797.681 575.559 1799.293 573.039 1800.617 569.409 L 1772.047 501.379 Z M 1841.993 535.586 C 1841.993 525.209 1845.495 516.657 1852.498 509.931 C 1859.501 503.205 1868.961 499.842 1880.876 499.842 C 1894.499 499.842 1904.791 503.792 1911.751 511.692 C 1917.346 518.056 1920.143 525.893 1920.143 535.202 C 1920.143 545.665 1916.674 554.238 1909.734 560.922 C 1902.794 567.605 1893.196 570.946 1880.939 570.946 C 1870.007 570.946 1861.168 568.171 1854.42 562.619 C 1846.136 555.744 1841.993 546.733 1841.993 535.586 Z M 1868.128 535.522 C 1868.128 541.587 1869.357 546.071 1871.811 548.975 C 1874.268 551.879 1877.353 553.331 1881.068 553.331 C 1884.825 553.331 1887.912 551.9 1890.324 549.038 C 1892.737 546.177 1893.943 541.587 1893.943 535.266 C 1893.943 529.373 1892.727 524.985 1890.292 522.102 C 1887.859 519.22 1884.848 517.778 1881.26 517.778 C 1877.46 517.778 1874.321 519.241 1871.843 522.166 C 1869.367 525.092 1868.128 529.544 1868.128 535.522 Z M 1989.844 569.409 L 1965.501 569.409 L 1965.501 558.391 C 1961.872 562.918 1958.211 566.143 1954.516 568.064 C 1950.822 569.985 1946.284 570.946 1940.903 570.946 C 1933.729 570.946 1928.103 568.8 1924.024 564.508 C 1919.946 560.217 1917.907 553.608 1917.907 544.683 L 1917.907 501.379 L 1944.107 501.379 L 1944.107 538.79 C 1944.107 543.06 1944.897 546.092 1946.477 547.885 C 1948.057 549.679 1950.278 550.576 1953.139 550.576 C 1956.257 550.576 1958.809 549.38 1960.793 546.989 C 1962.78 544.598 1963.773 540.306 1963.773 534.113 L 1963.773 501.379 L 1989.844 501.379 L 1989.844 569.409 Z M 1991.373 501.379 L 2015.779 501.379 L 2015.779 512.525 C 2018.128 507.701 2020.552 504.379 2023.05 502.564 C 2025.549 500.75 2028.634 499.842 2032.306 499.842 C 2036.15 499.842 2040.356 501.038 2044.926 503.429 L 2036.854 522.006 C 2033.78 520.725 2031.346 520.084 2029.552 520.084 C 2026.136 520.084 2023.488 521.494 2021.609 524.312 C 2018.918 528.284 2017.572 535.715 2017.572 546.604 L 2017.572 569.409 L 1991.373 569.409 L 1991.373 501.379 Z M 2100.276 501.379 L 2112.704 501.379 L 2112.704 520.468 L 2100.276 520.468 L 2100.276 569.409 L 2074.141 569.409 L 2074.141 520.468 L 2064.404 520.468 L 2064.404 501.379 L 2074.141 501.379 L 2074.141 498.305 C 2074.141 495.528 2074.44 492.475 2075.038 489.144 C 2075.636 485.814 2076.756 483.091 2078.4 480.977 C 2080.046 478.863 2082.352 477.155 2085.32 475.852 C 2088.288 474.551 2092.633 473.899 2098.355 473.899 C 2102.925 473.899 2109.566 474.433 2118.277 475.5 L 2115.394 491.258 C 2112.277 490.746 2109.757 490.489 2107.836 490.489 C 2105.487 490.489 2103.801 490.885 2102.775 491.674 C 2101.75 492.464 2101.024 493.714 2100.597 495.421 C 2100.383 496.361 2100.276 498.347 2100.276 501.379 Z M 2131.467 523.415 L 2106.548 520.789 C 2107.488 516.433 2108.844 513.006 2110.616 510.507 C 2112.388 508.009 2114.94 505.843 2118.271 504.006 C 2120.663 502.682 2123.951 501.657 2128.135 500.93 C 2132.321 500.205 2136.848 499.842 2141.716 499.842 C 2149.531 499.842 2155.809 500.28 2160.549 501.155 C 2165.29 502.031 2169.24 503.857 2172.399 506.632 C 2174.621 508.554 2176.372 511.277 2177.652 514.8 C 2178.934 518.323 2179.574 521.686 2179.574 524.889 L 2179.574 554.931 C 2179.574 558.135 2179.777 560.643 2180.183 562.459 C 2180.589 564.274 2181.475 566.59 2182.841 569.409 L 2158.371 569.409 C 2157.389 567.659 2156.749 566.324 2156.449 565.405 C 2156.151 564.487 2155.851 563.046 2155.552 561.081 C 2152.137 564.37 2148.742 566.718 2145.367 568.128 C 2140.755 570.007 2135.395 570.946 2129.289 570.946 C 2121.175 570.946 2115.014 569.067 2110.808 565.309 C 2106.601 561.551 2104.498 556.918 2104.498 551.408 C 2104.498 546.241 2106.014 541.992 2109.046 538.661 C 2112.078 535.331 2117.673 532.853 2125.83 531.23 C 2135.61 529.267 2141.952 527.889 2144.855 527.099 C 2147.759 526.309 2150.833 525.274 2154.079 523.991 C 2154.079 520.789 2153.418 518.547 2152.094 517.266 C 2150.77 515.985 2148.442 515.343 2145.111 515.343 C 2140.841 515.343 2137.638 516.027 2135.502 517.394 C 2133.837 518.462 2132.492 520.469 2131.467 523.415 Z M 2154.079 537.123 C 2150.493 538.405 2146.756 539.536 2142.869 540.518 C 2137.574 541.928 2134.221 543.316 2132.812 544.683 C 2131.36 546.092 2130.634 547.694 2130.634 549.487 C 2130.634 551.537 2131.35 553.213 2132.78 554.515 C 2134.21 555.819 2136.314 556.47 2139.09 556.47 C 2141.994 556.47 2144.695 555.765 2147.193 554.355 C 2149.692 552.945 2151.464 551.227 2152.509 549.198 C 2153.557 547.17 2154.079 544.533 2154.079 541.287 L 2154.079 537.123 Z M 2172.904 501.379 L 2200.065 501.379 L 2213.261 544.49 L 2226.905 501.379 L 2253.233 501.379 L 2224.343 569.409 L 2201.218 569.409 L 2172.904 501.379 Z M 2243.055 535.586 C 2243.055 525.209 2246.557 516.657 2253.56 509.931 C 2260.564 503.205 2270.023 499.842 2281.938 499.842 C 2295.561 499.842 2305.853 503.792 2312.814 511.692 C 2318.408 518.056 2321.206 525.893 2321.206 535.202 C 2321.206 545.665 2317.736 554.238 2310.796 560.922 C 2303.857 567.605 2294.259 570.946 2282.002 570.946 C 2271.07 570.946 2262.23 568.171 2255.482 562.619 C 2247.198 555.744 2243.055 546.733 2243.055 535.586 Z M 2269.191 535.522 C 2269.191 541.587 2270.419 546.071 2272.873 548.975 C 2275.33 551.879 2278.415 553.331 2282.13 553.331 C 2285.888 553.331 2288.974 551.9 2291.386 549.038 C 2293.799 546.177 2295.006 541.587 2295.006 535.266 C 2295.006 529.373 2293.789 524.985 2291.354 522.102 C 2288.921 519.22 2285.91 517.778 2282.322 517.778 C 2278.522 517.778 2275.383 519.241 2272.905 522.166 C 2270.43 525.092 2269.191 529.544 2269.191 535.522 Z M 2319.468 501.379 L 2343.874 501.379 L 2343.874 512.525 C 2346.223 507.701 2348.647 504.379 2351.145 502.564 C 2353.644 500.75 2356.729 499.842 2360.401 499.842 C 2364.245 499.842 2368.451 501.038 2373.021 503.429 L 2364.949 522.006 C 2361.875 520.725 2359.441 520.084 2357.647 520.084 C 2354.231 520.084 2351.583 521.494 2349.704 524.312 C 2347.013 528.284 2345.667 535.715 2345.667 546.604 L 2345.667 569.409 L 2319.468 569.409 L 2319.468 501.379 Z M 2363.857 475.5 L 2389.929 475.5 L 2389.929 493.244 L 2363.857 493.244 L 2363.857 475.5 Z M 2363.857 501.379 L 2389.929 501.379 L 2389.929 569.409 L 2363.857 569.409 L 2363.857 501.379 Z M 2423.495 475.5 L 2423.495 501.379 L 2437.845 501.379 L 2437.845 520.405 L 2423.495 520.405 L 2423.495 544.554 C 2423.495 547.459 2423.773 549.38 2424.328 550.319 C 2425.183 551.772 2426.678 552.498 2428.813 552.498 C 2430.734 552.498 2433.424 551.942 2436.883 550.832 L 2438.805 568.832 C 2432.357 570.241 2426.336 570.946 2420.741 570.946 C 2414.25 570.946 2409.467 570.113 2406.392 568.448 C 2403.317 566.783 2401.044 564.252 2399.57 560.857 C 2398.097 557.463 2397.36 551.965 2397.36 544.362 L 2397.36 520.405 L 2387.751 520.405 L 2387.751 501.379 L 2397.36 501.379 L 2397.36 488.888 L 2423.495 475.5 Z M 2504.01 541.864 L 2451.738 541.864 C 2452.209 546.049 2453.341 549.166 2455.133 551.217 C 2457.653 554.163 2460.943 555.636 2464.999 555.636 C 2467.561 555.636 2469.996 554.996 2472.301 553.715 C 2473.71 552.904 2475.227 551.473 2476.849 549.422 L 2502.536 551.793 C 2498.608 558.626 2493.868 563.526 2488.316 566.494 C 2482.765 569.463 2474.8 570.946 2464.422 570.946 C 2455.411 570.946 2448.322 569.676 2443.155 567.135 C 2437.987 564.594 2433.707 560.559 2430.312 555.028 C 2426.917 549.497 2425.219 542.996 2425.219 535.522 C 2425.219 524.89 2428.624 516.284 2435.436 509.706 C 2442.248 503.13 2451.653 499.842 2463.653 499.842 C 2473.391 499.842 2481.077 501.316 2486.714 504.262 C 2492.351 507.21 2496.643 511.48 2499.59 517.073 C 2502.537 522.668 2504.01 529.95 2504.01 538.918 L 2504.01 541.864 Z M 2477.49 529.372 C 2476.977 524.334 2475.622 520.725 2473.423 518.547 C 2471.223 516.37 2468.329 515.28 2464.743 515.28 C 2460.6 515.28 2457.29 516.924 2454.814 520.212 C 2453.234 522.263 2452.23 525.316 2451.803 529.372 L 2477.49 529.372 Z M 2538.088 501.379 L 2562.43 501.379 L 2562.43 511.308 C 2565.932 507.166 2569.467 504.22 2573.032 502.469 C 2576.598 500.718 2580.901 499.842 2585.94 499.842 C 2591.363 499.842 2595.655 500.803 2598.815 502.725 C 2601.976 504.646 2604.559 507.508 2606.566 511.308 C 2610.666 506.867 2614.403 503.846 2617.777 502.244 C 2621.151 500.643 2625.314 499.842 2630.267 499.842 C 2637.571 499.842 2643.272 502.01 2647.371 506.344 C 2651.472 510.679 2653.521 517.458 2653.521 526.682 L 2653.521 569.409 L 2627.385 569.409 L 2627.385 530.654 C 2627.385 527.579 2626.788 525.295 2625.591 523.8 C 2623.841 521.451 2621.663 520.277 2619.057 520.277 C 2615.982 520.277 2613.506 521.388 2611.627 523.607 C 2609.748 525.828 2608.808 529.394 2608.808 534.305 L 2608.808 569.409 L 2582.673 569.409 L 2582.673 531.935 C 2582.673 528.946 2582.502 526.918 2582.16 525.849 C 2581.605 524.142 2580.645 522.764 2579.278 521.718 C 2577.911 520.671 2576.31 520.148 2574.473 520.148 C 2571.484 520.148 2569.029 521.28 2567.106 523.543 C 2565.185 525.807 2564.223 529.523 2564.223 534.69 L 2564.223 569.409 L 2538.088 569.409 L 2538.088 501.379 Z M 2643.981 535.586 C 2643.981 525.209 2647.483 516.657 2654.487 509.931 C 2661.491 503.205 2670.949 499.842 2682.864 499.842 C 2696.487 499.842 2706.779 503.792 2713.739 511.692 C 2719.334 518.056 2722.131 525.893 2722.131 535.202 C 2722.131 545.665 2718.662 554.238 2711.722 560.922 C 2704.783 567.605 2695.184 570.946 2682.928 570.946 C 2671.995 570.946 2663.156 568.171 2656.408 562.619 C 2648.124 555.744 2643.981 546.733 2643.981 535.586 Z M 2670.116 535.522 C 2670.116 541.587 2671.345 546.071 2673.799 548.975 C 2676.256 551.879 2679.341 553.331 2683.056 553.331 C 2686.815 553.331 2689.9 551.9 2692.312 549.038 C 2694.725 546.177 2695.931 541.587 2695.931 535.266 C 2695.931 529.373 2694.715 524.985 2692.28 522.102 C 2689.847 519.22 2686.836 517.778 2683.248 517.778 C 2679.448 517.778 2676.309 519.241 2673.832 522.166 C 2671.355 525.092 2670.116 529.544 2670.116 535.522 Z M 2712.386 501.379 L 2739.547 501.379 L 2752.743 544.49 L 2766.387 501.379 L 2792.715 501.379 L 2763.825 569.409 L 2740.7 569.409 L 2712.386 501.379 Z M 2786.688 475.5 L 2812.759 475.5 L 2812.759 493.244 L 2786.688 493.244 L 2786.688 475.5 Z M 2786.688 501.379 L 2812.759 501.379 L 2812.759 569.409 L 2786.688 569.409 L 2786.688 501.379 Z M 2890.397 541.864 L 2838.125 541.864 C 2838.595 546.049 2839.727 549.166 2841.52 551.217 C 2844.04 554.163 2847.33 555.636 2851.386 555.636 C 2853.948 555.636 2856.382 554.996 2858.688 553.715 C 2860.097 552.904 2861.613 551.473 2863.236 549.422 L 2888.923 551.793 C 2884.995 558.626 2880.255 563.526 2874.703 566.494 C 2869.152 569.463 2861.187 570.946 2850.809 570.946 C 2841.798 570.946 2834.709 569.676 2829.542 567.135 C 2824.374 564.594 2820.094 560.559 2816.699 555.028 C 2813.304 549.497 2811.606 542.996 2811.606 535.522 C 2811.606 524.89 2815.011 516.284 2821.823 509.706 C 2828.635 503.13 2838.04 499.842 2850.04 499.842 C 2859.778 499.842 2867.464 501.316 2873.101 504.262 C 2878.738 507.21 2883.03 511.48 2885.977 517.073 C 2888.924 522.668 2890.397 529.95 2890.397 538.918 L 2890.397 541.864 Z M 2863.877 529.372 C 2863.364 524.334 2862.009 520.725 2859.81 518.547 C 2857.61 516.37 2854.716 515.28 2851.129 515.28 C 2846.987 515.28 2843.677 516.924 2841.201 520.212 C 2839.62 522.263 2838.617 525.316 2838.19 529.372 L 2863.877 529.372 Z M 2883.228 550.576 L 2909.108 548.141 C 2910.175 551.217 2911.67 553.416 2913.591 554.74 C 2915.514 556.064 2918.076 556.726 2921.279 556.726 C 2924.781 556.726 2927.492 555.979 2929.414 554.484 C 2930.909 553.373 2931.656 551.985 2931.656 550.319 C 2931.656 548.44 2930.674 546.989 2928.709 545.964 C 2927.3 545.238 2923.563 544.342 2917.499 543.273 C 2908.445 541.694 2902.157 540.23 2898.634 538.885 C 2895.11 537.54 2892.143 535.266 2889.73 532.063 C 2887.317 528.86 2886.11 525.209 2886.11 521.109 C 2886.11 516.626 2887.414 512.761 2890.018 509.515 C 2892.623 506.269 2896.211 503.846 2900.78 502.244 C 2905.35 500.643 2911.478 499.842 2919.165 499.842 C 2927.28 499.842 2933.269 500.462 2937.133 501.7 C 2940.999 502.939 2944.222 504.86 2946.806 507.465 C 2949.39 510.07 2951.536 513.594 2953.244 518.034 L 2928.516 520.468 C 2927.876 518.291 2926.809 516.689 2925.314 515.664 C 2923.265 514.298 2920.788 513.615 2917.884 513.615 C 2914.937 513.615 2912.792 514.138 2911.446 515.184 C 2910.101 516.23 2909.428 517.501 2909.428 518.996 C 2909.428 520.661 2910.282 521.921 2911.99 522.775 C 2913.698 523.63 2917.414 524.398 2923.137 525.081 C 2931.806 526.063 2938.254 527.43 2942.482 529.181 C 2946.71 530.932 2949.945 533.43 2952.187 536.676 C 2954.429 539.922 2955.549 543.487 2955.549 547.373 C 2955.549 551.302 2954.364 555.124 2951.994 558.839 C 2949.624 562.555 2945.888 565.512 2940.784 567.712 C 2935.681 569.911 2928.731 571.011 2919.933 571.011 C 2907.506 571.011 2898.656 569.238 2893.382 565.693 C 2888.108 562.149 2884.723 557.11 2883.228 550.576 Z" style="fill: rgb(255, 255, 255); white-space: pre;"/>
      </g>
    </g>
    <path d="M 593.007 349.983 L 593.007 39.267 L 657.827 39.267 L 657.827 177.245 L 788.779 39.267 L 875.935 39.267 L 755.055 160.29 L 882.505 349.983 L 798.634 349.983 L 710.383 204.162 L 657.827 256.09 L 657.827 349.983 L 593.007 349.983 Z" style="fill: rgb(51, 50, 92); white-space: pre;"/>
  </g>
</svg>