<?xml version="1.0" encoding="utf-8"?>
<svg viewBox="-1260.455 62.011 3249.973 648.134" xmlns="http://www.w3.org/2000/svg">
  <g transform="matrix(1, 0, 0, 1, 115.384477, 127.142366)">
    <g id="Calque_1" data-name="Calque 1" transform="matrix(0.983509, 0, 0, 0.951905, -1367.797363, -60.85302)" style="">
      <g id="LOGO-ICON-LEFT">
        <path id="LOGOTYPE" class="cls-1" d="M 745.6 558.59 L 745.6 399.43 C 755.19 411.88 768.15 421.47 784.47 428.2 C 800.79 434.93 818.95 438.3 838.95 438.3 C 865.88 438.3 889.66 432.13 910.27 419.78 C 930.88 407.43 947.05 389.94 958.78 367.29 C 970.51 344.64 976.38 318.73 976.38 289.55 C 976.38 260.37 970.51 234.61 958.78 212.27 C 947.05 189.93 930.88 172.58 910.27 160.24 C 889.66 147.89 866.19 141.72 839.87 141.72 C 818.04 141.72 798.24 146.11 780.49 154.88 C 762.74 163.65 748.86 175.59 738.86 190.69 L 733.66 150.59 L 676.12 150.59 L 676.12 558.59 L 745.6 558.59 Z M 825.79 374.94 C 802.53 374.94 783.65 367.29 769.17 351.98 C 754.68 336.68 747.44 316.27 747.44 290.76 C 747.44 265.25 754.73 244.08 769.32 228.47 C 783.91 212.86 802.94 205.06 826.4 205.06 C 849.86 205.06 868.79 212.86 883.18 228.47 C 897.57 244.08 904.76 264.64 904.76 290.14 C 904.76 315.64 897.57 335.64 883.18 351.36 C 868.79 367.07 849.66 374.93 825.79 374.93 L 825.79 374.94 Z M 1159.48 438.3 C 1181.52 438.3 1201.46 434.01 1219.32 425.44 C 1237.17 416.87 1250.9 405.24 1260.49 390.55 L 1260.49 430.03 L 1327.52 430.03 L 1327.52 150.59 L 1269.06 150.59 L 1263.55 186.09 C 1253.55 172.01 1240.03 161.09 1222.99 153.34 C 1205.95 145.59 1186.82 141.71 1165.6 141.71 C 1138.46 141.71 1114.43 147.88 1093.52 160.23 C 1072.6 172.58 1056.33 190.12 1044.7 212.88 C 1033.07 235.63 1027.25 261.8 1027.25 291.39 C 1027.25 320.98 1032.76 346.53 1043.78 368.67 C 1054.8 390.81 1070.36 407.95 1090.46 420.09 C 1110.56 432.23 1133.57 438.3 1159.48 438.3 Z M 1176.93 374.94 C 1153.67 374.94 1134.79 367.08 1120.31 351.37 C 1105.82 335.66 1098.58 315.05 1098.58 289.54 C 1098.58 264.03 1105.77 243.48 1120.16 227.87 C 1134.55 212.26 1153.68 204.46 1177.55 204.46 C 1201.42 204.46 1220.55 212.16 1234.94 227.57 C 1249.33 242.98 1256.52 263.43 1256.52 288.94 C 1256.52 314.45 1249.12 335.16 1234.33 351.07 C 1219.54 366.99 1200.41 374.94 1176.94 374.94 L 1176.93 374.94 Z M 1479.7 430.03 L 1479.7 289.54 C 1479.7 264.03 1486.48 244.29 1500.05 230.31 C 1513.62 216.33 1532.95 209.34 1558.05 209.34 C 1561.52 209.34 1567.03 209.75 1574.58 210.56 L 1574.58 150.57 C 1566.21 148.94 1557.44 148.02 1548.26 147.82 C 1531.12 147.82 1516.33 151.49 1503.88 158.84 C 1491.43 166.19 1483.17 176.8 1479.09 190.67 L 1472.97 150.57 L 1409.61 150.57 L 1409.61 430.04 L 1479.7 430.04 L 1479.7 430.03 Z M 1876.12 93.97 C 1890 93.97 1901.52 89.38 1910.71 80.2 C 1919.9 71.02 1924.48 60 1924.48 47.14 C 1924.48 34.28 1919.89 22.45 1910.71 13.47 C 1901.53 4.49 1890 0 1876.12 0 C 1862.24 0 1850.1 4.49 1840.92 13.47 C 1831.74 22.45 1827.15 33.67 1827.15 47.14 C 1827.15 60.61 1831.84 71.01 1841.23 80.2 C 1850.62 89.38 1862.25 93.97 1876.12 93.97 Z M 1737.47 430.04 L 1737.47 208.13 L 1840.31 208.13 L 1840.31 430.04 L 1910.71 430.04 L 1910.71 150.59 L 1737.47 150.59 L 1737.47 77.13 L 1667.38 77.13 L 1667.38 150.59 L 1614.12 150.59 L 1614.12 208.13 L 1667.38 208.13 L 1667.38 430.04 L 1737.47 430.04 Z M 2461.16 438.3 C 2495.85 438.3 2525.74 429.53 2550.84 411.98 C 2575.94 394.43 2591.55 371.37 2597.67 342.81 L 2529.41 342.81 C 2524.92 354.64 2516.61 363.88 2504.46 370.51 C 2492.32 377.14 2477.88 380.46 2461.15 380.46 C 2438.91 380.46 2420.8 373.98 2406.82 361.02 C 2392.84 348.06 2385.45 330.97 2384.63 309.75 L 2593.99 309.75 C 2596.03 300.57 2597.05 289.04 2597.05 275.16 C 2597.05 249.25 2591.34 226.29 2579.91 206.29 C 2568.48 186.29 2552.31 170.53 2531.4 159 C 2510.48 147.47 2486.46 141.71 2459.32 141.71 C 2432.18 141.71 2407.13 147.78 2385.4 159.92 C 2363.67 172.06 2346.63 189.2 2334.29 211.34 C 2321.94 233.48 2315.77 259.34 2315.77 288.93 C 2315.77 318.52 2321.84 344.28 2333.98 366.83 C 2346.12 389.38 2363.16 406.93 2385.09 419.48 C 2407.03 432.03 2432.38 438.3 2461.15 438.3 L 2461.16 438.3 Z M 2525.74 262.61 L 2385.86 262.61 C 2386.68 243.43 2393.72 228.07 2406.98 216.55 C 2420.24 205.02 2437.08 199.26 2457.48 199.26 C 2477.88 199.26 2493.75 204.92 2506.3 216.25 C 2518.85 227.57 2525.33 243.03 2525.74 262.62 L 2525.74 262.61 Z M 2790.25 438.3 C 2824.94 438.3 2854.83 429.53 2879.93 411.98 C 2905.03 394.43 2920.64 371.37 2926.76 342.81 L 2858.5 342.81 C 2854.01 354.64 2845.7 363.88 2833.55 370.51 C 2821.41 377.14 2806.97 380.46 2790.24 380.46 C 2768 380.46 2749.89 373.98 2735.91 361.02 C 2721.93 348.06 2714.54 330.97 2713.72 309.75 L 2923.08 309.75 C 2925.12 300.57 2926.14 289.04 2926.14 275.16 C 2926.14 249.25 2920.43 226.29 2909 206.29 C 2897.57 186.29 2881.4 170.53 2860.49 159 C 2839.57 147.47 2815.55 141.71 2788.41 141.71 C 2761.27 141.71 2736.22 147.78 2714.49 159.92 C 2692.76 172.06 2675.72 189.2 2663.38 211.34 C 2651.03 233.48 2644.86 259.34 2644.86 288.93 C 2644.86 318.52 2650.93 344.28 2663.07 366.83 C 2675.21 389.38 2692.25 406.93 2714.18 419.48 C 2736.12 432.03 2761.47 438.3 2790.24 438.3 L 2790.25 438.3 Z M 2854.83 262.61 L 2714.95 262.61 C 2715.77 243.43 2722.81 228.07 2736.07 216.55 C 2749.33 205.02 2766.17 199.26 2786.57 199.26 C 2806.97 199.26 2822.84 204.92 2835.39 216.25 C 2847.94 227.57 2854.42 243.03 2854.83 262.62 L 2854.83 262.61 Z M 3059.66 558.59 L 3059.66 399.43 C 3069.25 411.88 3082.21 421.47 3098.53 428.2 C 3114.85 434.93 3133.01 438.3 3153.01 438.3 C 3179.94 438.3 3203.72 432.13 3224.33 419.78 C 3244.94 407.43 3261.11 389.94 3272.84 367.29 C 3284.57 344.64 3290.44 318.73 3290.44 289.55 C 3290.44 260.37 3284.57 234.61 3272.84 212.27 C 3261.11 189.93 3244.94 172.58 3224.33 160.24 C 3203.72 147.89 3180.25 141.72 3153.93 141.72 C 3132.1 141.72 3112.3 146.11 3094.55 154.88 C 3076.8 163.65 3062.92 175.59 3052.92 190.69 L 3047.72 150.59 L 2990.18 150.59 L 2990.18 558.59 L 3059.66 558.59 Z M 3139.85 374.94 C 3116.59 374.94 3097.71 367.29 3083.23 351.98 C 3068.74 336.68 3061.5 316.27 3061.5 290.76 C 3061.5 265.25 3068.8 244.08 3083.38 228.47 C 3097.97 212.86 3117 205.06 3140.46 205.06 C 3163.92 205.06 3182.85 212.86 3197.24 228.47 C 3211.63 244.08 3218.82 264.64 3218.82 290.14 C 3218.82 315.64 3211.63 335.64 3197.24 351.36 C 3182.85 367.08 3163.72 374.93 3139.85 374.93 L 3139.85 374.94 Z" style="fill: rgb(255, 255, 255);"/>
        <path class="cls-1" d="M271.07,48.85C121.36,48.85,0,170.21,0,319.92c0,47.9,12.47,92.87,34.28,131.93l148.24-152.31,73.45,75.84,143.95-149.8,30.54,29.35-174.36,181.46-73.65-76.05-124.09,127.49c49.65,62.8,126.44,103.15,212.71,103.15,149.71,0,271.07-121.36,271.07-271.07S420.78,48.85,271.07,48.85Z" style="fill: rgb(255, 255, 255);"/>
        <path d="M 28.742 -0.647 Q 28.742 -0.441 28.683 -0.294 Q 28.625 -0.147 28.419 -0.044 Q 28.213 0.059 27.86 0.118 Q 27.507 0.177 26.948 0.177 Q 26.418 0.177 25.874 0.118 Q 25.33 0.059 25.035 -0.132 Q 24.741 -0.324 24.535 -0.588 L 9.149 -20.123 L 9.149 -0.588 Q 9.149 -0.412 9.061 -0.265 Q 8.973 -0.118 8.767 -0.029 Q 8.561 0.059 8.223 0.118 Q 7.884 0.177 7.355 0.177 Q 6.855 0.177 6.502 0.118 Q 6.149 0.059 5.943 -0.029 Q 5.737 -0.118 5.648 -0.265 Q 5.56 -0.412 5.56 -0.588 L 5.56 -37.48 Q 5.56 -37.656 5.648 -37.803 Q 5.737 -37.95 5.943 -38.039 Q 6.149 -38.127 6.502 -38.186 Q 6.855 -38.245 7.355 -38.245 Q 7.884 -38.245 8.223 -38.186 Q 8.561 -38.127 8.767 -38.039 Q 8.973 -37.95 9.061 -37.803 Q 9.149 -37.656 9.149 -37.48 L 9.149 -20.181 L 23.888 -37.48 Q 24.065 -37.686 24.271 -37.833 Q 24.477 -37.98 24.741 -38.068 Q 25.006 -38.156 25.359 -38.2 Q 25.712 -38.245 26.242 -38.245 Q 26.771 -38.245 27.095 -38.186 Q 27.418 -38.127 27.61 -38.024 Q 27.801 -37.921 27.86 -37.789 Q 27.919 -37.656 27.919 -37.48 Q 27.919 -37.156 27.757 -36.862 Q 27.595 -36.568 27.212 -36.156 L 13.356 -20.299 L 28.154 -1.736 Q 28.566 -1.206 28.654 -1 Q 28.742 -0.794 28.742 -0.647 Z" transform="matrix(3.172658, 0, 0, 3.277993, 758.95636, 632.580566)" style="fill: rgb(51, 50, 92); line-height: 65.1212px; white-space: pre;"/>
        <path d="M 57.014 -15.268 Q 57.014 -14.209 56.455 -13.812 Q 55.896 -13.415 55.366 -13.415 L 37.215 -13.415 Q 37.215 -10.944 37.7 -8.943 Q 38.186 -6.943 39.304 -5.516 Q 40.422 -4.089 42.216 -3.324 Q 44.011 -2.559 46.629 -2.559 Q 48.482 -2.559 49.953 -2.883 Q 51.424 -3.207 52.498 -3.604 Q 53.572 -4.001 54.263 -4.325 Q 54.955 -4.648 55.249 -4.648 Q 55.425 -4.648 55.572 -4.56 Q 55.719 -4.472 55.808 -4.28 Q 55.896 -4.089 55.94 -3.795 Q 55.984 -3.501 55.984 -3.06 Q 55.984 -2.854 55.955 -2.662 Q 55.925 -2.471 55.881 -2.309 Q 55.837 -2.148 55.749 -2 Q 55.661 -1.853 55.513 -1.706 Q 55.366 -1.559 54.602 -1.191 Q 53.837 -0.824 52.601 -0.456 Q 51.365 -0.088 49.733 0.206 Q 48.1 0.5 46.217 0.5 Q 43.128 0.5 40.745 -0.427 Q 38.362 -1.353 36.744 -3.163 Q 35.126 -4.972 34.288 -7.649 Q 33.449 -10.326 33.449 -13.856 Q 33.449 -17.239 34.317 -19.917 Q 35.185 -22.594 36.803 -24.462 Q 38.421 -26.33 40.701 -27.315 Q 42.981 -28.301 45.776 -28.301 Q 48.777 -28.301 50.895 -27.301 Q 53.013 -26.3 54.381 -24.609 Q 55.749 -22.917 56.381 -20.681 Q 57.014 -18.446 57.014 -15.974 Z M 53.395 -16.298 Q 53.484 -20.534 51.454 -22.917 Q 49.424 -25.3 45.54 -25.3 Q 43.54 -25.3 42.025 -24.55 Q 40.51 -23.8 39.465 -22.564 Q 38.421 -21.329 37.862 -19.696 Q 37.303 -18.063 37.215 -16.298 Z M 86.783 -15.268 Q 86.783 -14.209 86.224 -13.812 Q 85.665 -13.415 85.135 -13.415 L 66.984 -13.415 Q 66.984 -10.944 67.469 -8.943 Q 67.955 -6.943 69.073 -5.516 Q 70.19 -4.089 71.985 -3.324 Q 73.78 -2.559 76.398 -2.559 Q 78.251 -2.559 79.722 -2.883 Q 81.193 -3.207 82.267 -3.604 Q 83.341 -4.001 84.032 -4.325 Q 84.723 -4.648 85.018 -4.648 Q 85.194 -4.648 85.341 -4.56 Q 85.488 -4.472 85.577 -4.28 Q 85.665 -4.089 85.709 -3.795 Q 85.753 -3.501 85.753 -3.06 Q 85.753 -2.854 85.724 -2.662 Q 85.694 -2.471 85.65 -2.309 Q 85.606 -2.148 85.518 -2 Q 85.429 -1.853 85.282 -1.706 Q 85.135 -1.559 84.37 -1.191 Q 83.605 -0.824 82.37 -0.456 Q 81.134 -0.088 79.502 0.206 Q 77.869 0.5 75.986 0.5 Q 72.897 0.5 70.514 -0.427 Q 68.131 -1.353 66.513 -3.163 Q 64.895 -4.972 64.057 -7.649 Q 63.218 -10.326 63.218 -13.856 Q 63.218 -17.239 64.086 -19.917 Q 64.954 -22.594 66.572 -24.462 Q 68.19 -26.33 70.47 -27.315 Q 72.75 -28.301 75.545 -28.301 Q 78.545 -28.301 80.664 -27.301 Q 82.782 -26.3 84.15 -24.609 Q 85.518 -22.917 86.15 -20.681 Q 86.783 -18.446 86.783 -15.974 Z M 83.164 -16.298 Q 83.252 -20.534 81.223 -22.917 Q 79.193 -25.3 75.309 -25.3 Q 73.309 -25.3 71.794 -24.55 Q 70.279 -23.8 69.234 -22.564 Q 68.19 -21.329 67.631 -19.696 Q 67.072 -18.063 66.984 -16.298 Z M 118.085 -14.298 Q 118.085 -10.885 117.335 -8.149 Q 116.585 -5.413 115.129 -3.501 Q 113.672 -1.589 111.525 -0.544 Q 109.377 0.5 106.612 0.5 Q 105.435 0.5 104.406 0.25 Q 103.376 0 102.39 -0.53 Q 101.405 -1.059 100.419 -1.853 Q 99.434 -2.648 98.345 -3.766 L 98.345 9.973 Q 98.345 10.15 98.257 10.297 Q 98.169 10.444 97.977 10.547 Q 97.786 10.65 97.448 10.694 Q 97.11 10.738 96.58 10.738 Q 96.08 10.738 95.742 10.694 Q 95.403 10.65 95.197 10.547 Q 94.991 10.444 94.918 10.297 Q 94.844 10.15 94.844 9.973 L 94.844 -27.212 Q 94.844 -27.418 94.918 -27.566 Q 94.991 -27.713 95.183 -27.801 Q 95.374 -27.889 95.683 -27.933 Q 95.992 -27.977 96.433 -27.977 Q 96.874 -27.977 97.168 -27.933 Q 97.463 -27.889 97.669 -27.801 Q 97.875 -27.713 97.963 -27.566 Q 98.051 -27.418 98.051 -27.212 L 98.051 -23.359 Q 99.287 -24.624 100.405 -25.55 Q 101.522 -26.477 102.64 -27.095 Q 103.758 -27.713 104.935 -28.007 Q 106.112 -28.301 107.436 -28.301 Q 110.319 -28.301 112.349 -27.198 Q 114.379 -26.095 115.658 -24.182 Q 116.938 -22.27 117.512 -19.725 Q 118.085 -17.181 118.085 -14.298 Z M 114.408 -13.739 Q 114.408 -15.974 114.055 -18.048 Q 113.702 -20.123 112.863 -21.741 Q 112.025 -23.359 110.628 -24.329 Q 109.23 -25.3 107.112 -25.3 Q 106.053 -25.3 105.038 -25.006 Q 104.023 -24.712 102.964 -24.035 Q 101.905 -23.359 100.758 -22.285 Q 99.61 -21.211 98.345 -19.622 L 98.345 -8.031 Q 100.552 -5.354 102.567 -3.927 Q 104.582 -2.501 106.788 -2.501 Q 108.818 -2.501 110.275 -3.486 Q 111.731 -4.472 112.643 -6.075 Q 113.555 -7.678 113.981 -9.694 Q 114.408 -11.709 114.408 -13.739 Z M 129.644 -0.588 Q 129.644 -0.412 129.556 -0.265 Q 129.468 -0.118 129.277 -0.029 Q 129.085 0.059 128.747 0.118 Q 128.409 0.177 127.879 0.177 Q 127.379 0.177 127.041 0.118 Q 126.702 0.059 126.497 -0.029 Q 126.291 -0.118 126.217 -0.265 Q 126.143 -0.412 126.143 -0.588 L 126.143 -27.212 Q 126.143 -27.389 126.217 -27.536 Q 126.291 -27.683 126.497 -27.786 Q 126.702 -27.889 127.041 -27.933 Q 127.379 -27.977 127.879 -27.977 Q 128.409 -27.977 128.747 -27.933 Q 129.085 -27.889 129.277 -27.786 Q 129.468 -27.683 129.556 -27.536 Q 129.644 -27.389 129.644 -27.212 Z M 130.174 -36.185 Q 130.174 -34.773 129.674 -34.273 Q 129.174 -33.773 127.85 -33.773 Q 126.555 -33.773 126.07 -34.258 Q 125.585 -34.744 125.585 -36.156 Q 125.585 -37.568 126.085 -38.068 Q 126.585 -38.568 127.909 -38.568 Q 129.203 -38.568 129.688 -38.083 Q 130.174 -37.597 130.174 -36.185 Z M 161.033 -0.588 Q 161.033 -0.412 160.945 -0.265 Q 160.856 -0.118 160.665 -0.029 Q 160.474 0.059 160.136 0.118 Q 159.797 0.177 159.297 0.177 Q 158.768 0.177 158.429 0.118 Q 158.091 0.059 157.9 -0.029 Q 157.709 -0.118 157.62 -0.265 Q 157.532 -0.412 157.532 -0.588 L 157.532 -16.386 Q 157.532 -18.858 157.15 -20.402 Q 156.767 -21.946 156.002 -23.05 Q 155.237 -24.153 154.046 -24.756 Q 152.855 -25.359 151.266 -25.359 Q 149.236 -25.359 147.206 -23.918 Q 145.176 -22.476 142.94 -19.681 L 142.94 -0.588 Q 142.94 -0.412 142.852 -0.265 Q 142.764 -0.118 142.573 -0.029 Q 142.381 0.059 142.043 0.118 Q 141.705 0.177 141.175 0.177 Q 140.675 0.177 140.337 0.118 Q 139.998 0.059 139.793 -0.029 Q 139.587 -0.118 139.513 -0.265 Q 139.44 -0.412 139.44 -0.588 L 139.44 -27.212 Q 139.44 -27.389 139.513 -27.536 Q 139.587 -27.683 139.793 -27.786 Q 139.998 -27.889 140.307 -27.933 Q 140.616 -27.977 141.116 -27.977 Q 141.617 -27.977 141.94 -27.933 Q 142.264 -27.889 142.44 -27.786 Q 142.617 -27.683 142.69 -27.536 Q 142.764 -27.389 142.764 -27.212 L 142.764 -23.447 Q 145.059 -26.006 147.265 -27.154 Q 149.471 -28.301 151.648 -28.301 Q 154.267 -28.301 156.061 -27.418 Q 157.856 -26.536 158.959 -25.035 Q 160.062 -23.535 160.548 -21.535 Q 161.033 -19.534 161.033 -16.71 Z M 192.071 -26.33 Q 192.071 -25.506 191.807 -25.183 Q 191.542 -24.859 191.13 -24.859 L 186.923 -24.859 Q 188.159 -23.594 188.644 -22.108 Q 189.129 -20.623 189.129 -18.975 Q 189.129 -16.71 188.409 -14.945 Q 187.688 -13.18 186.364 -11.959 Q 185.04 -10.738 183.216 -10.091 Q 181.392 -9.443 179.186 -9.443 Q 177.391 -9.443 175.773 -9.944 Q 174.155 -10.444 173.243 -11.179 Q 172.655 -10.591 172.272 -9.826 Q 171.89 -9.061 171.89 -8.061 Q 171.89 -6.943 172.964 -6.178 Q 174.038 -5.413 175.744 -5.354 L 182.951 -5.06 Q 184.775 -5.001 186.379 -4.56 Q 187.982 -4.119 189.188 -3.251 Q 190.394 -2.383 191.101 -1.118 Q 191.807 0.147 191.807 1.853 Q 191.807 3.619 191.086 5.237 Q 190.365 6.855 188.85 8.075 Q 187.335 9.296 184.981 10.017 Q 182.628 10.738 179.362 10.738 Q 176.244 10.738 174.052 10.194 Q 171.861 9.649 170.463 8.693 Q 169.066 7.737 168.433 6.443 Q 167.801 5.148 167.801 3.648 Q 167.801 2.618 168.036 1.706 Q 168.271 0.794 168.757 -0.029 Q 169.242 -0.853 169.963 -1.618 Q 170.684 -2.383 171.625 -3.177 Q 170.125 -3.942 169.419 -5.031 Q 168.713 -6.119 168.713 -7.355 Q 168.713 -9.179 169.419 -10.576 Q 170.125 -11.973 171.125 -13.091 Q 170.272 -14.209 169.801 -15.533 Q 169.331 -16.857 169.331 -18.71 Q 169.331 -20.946 170.066 -22.726 Q 170.801 -24.506 172.111 -25.742 Q 173.42 -26.977 175.244 -27.639 Q 177.068 -28.301 179.245 -28.301 Q 180.392 -28.301 181.407 -28.169 Q 182.422 -28.036 183.275 -27.83 L 191.13 -27.83 Q 191.63 -27.83 191.851 -27.448 Q 192.071 -27.065 192.071 -26.33 Z M 185.511 -18.916 Q 185.511 -21.946 183.849 -23.653 Q 182.187 -25.359 179.127 -25.359 Q 177.568 -25.359 176.391 -24.83 Q 175.214 -24.3 174.449 -23.388 Q 173.685 -22.476 173.302 -21.27 Q 172.92 -20.064 172.92 -18.71 Q 172.92 -15.769 174.582 -14.077 Q 176.244 -12.385 179.245 -12.385 Q 180.833 -12.385 182.025 -12.915 Q 183.216 -13.444 183.981 -14.342 Q 184.746 -15.239 185.128 -16.43 Q 185.511 -17.622 185.511 -18.916 Z M 188.306 2.059 Q 188.306 0.118 186.732 -0.912 Q 185.158 -1.942 182.51 -2.03 L 174.773 -2.295 Q 173.714 -1.471 173.037 -0.735 Q 172.361 0 171.964 0.691 Q 171.566 1.383 171.419 2.045 Q 171.272 2.707 171.272 3.383 Q 171.272 5.56 173.464 6.678 Q 175.656 7.796 179.568 7.796 Q 182.04 7.796 183.702 7.311 Q 185.364 6.825 186.394 6.031 Q 187.423 5.237 187.864 4.207 Q 188.306 3.177 188.306 2.059 Z M 225.428 -2.177 Q 225.428 -1.559 225.325 -1.177 Q 225.222 -0.794 225.002 -0.574 Q 224.781 -0.353 224.355 -0.162 Q 223.928 0.029 223.369 0.162 Q 222.81 0.294 222.192 0.368 Q 221.574 0.441 220.986 0.441 Q 219.015 0.441 217.632 -0.088 Q 216.25 -0.618 215.367 -1.692 Q 214.484 -2.765 214.087 -4.413 Q 213.69 -6.06 213.69 -8.296 L 213.69 -24.859 L 209.719 -24.859 Q 209.307 -24.859 209.071 -25.227 Q 208.836 -25.594 208.836 -26.33 Q 208.836 -26.712 208.895 -26.992 Q 208.954 -27.271 209.071 -27.463 Q 209.189 -27.654 209.351 -27.742 Q 209.513 -27.83 209.719 -27.83 L 213.69 -27.83 L 213.69 -34.361 Q 213.69 -34.538 213.764 -34.685 Q 213.837 -34.832 214.043 -34.935 Q 214.249 -35.038 214.587 -35.082 Q 214.926 -35.126 215.426 -35.126 Q 215.955 -35.126 216.294 -35.082 Q 216.632 -35.038 216.823 -34.935 Q 217.015 -34.832 217.103 -34.685 Q 217.191 -34.538 217.191 -34.361 L 217.191 -27.83 L 224.546 -27.83 Q 224.752 -27.83 224.913 -27.742 Q 225.075 -27.654 225.193 -27.463 Q 225.311 -27.271 225.369 -26.992 Q 225.428 -26.712 225.428 -26.33 Q 225.428 -25.594 225.178 -25.227 Q 224.928 -24.859 224.546 -24.859 L 217.191 -24.859 L 217.191 -8.767 Q 217.191 -5.737 218.059 -4.148 Q 218.927 -2.559 221.221 -2.559 Q 221.927 -2.559 222.501 -2.707 Q 223.075 -2.854 223.516 -3.03 Q 223.957 -3.207 224.266 -3.354 Q 224.575 -3.501 224.811 -3.501 Q 224.958 -3.501 225.075 -3.442 Q 225.193 -3.383 225.267 -3.221 Q 225.34 -3.06 225.384 -2.81 Q 225.428 -2.559 225.428 -2.177 Z M 247.172 -25.859 Q 247.172 -25.418 247.142 -25.109 Q 247.113 -24.8 247.039 -24.609 Q 246.966 -24.418 246.863 -24.315 Q 246.76 -24.212 246.583 -24.212 Q 246.319 -24.212 245.966 -24.344 Q 245.613 -24.477 245.142 -24.624 Q 244.671 -24.771 244.112 -24.903 Q 243.553 -25.035 242.877 -25.035 Q 242.082 -25.035 241.317 -24.697 Q 240.553 -24.359 239.714 -23.609 Q 238.876 -22.858 237.949 -21.623 Q 237.022 -20.387 235.904 -18.593 L 235.904 -0.588 Q 235.904 -0.412 235.816 -0.265 Q 235.728 -0.118 235.537 -0.029 Q 235.345 0.059 235.007 0.118 Q 234.669 0.177 234.139 0.177 Q 233.639 0.177 233.301 0.118 Q 232.962 0.059 232.757 -0.029 Q 232.551 -0.118 232.477 -0.265 Q 232.403 -0.412 232.403 -0.588 L 232.403 -27.212 Q 232.403 -27.389 232.477 -27.536 Q 232.551 -27.683 232.757 -27.786 Q 232.962 -27.889 233.271 -27.933 Q 233.58 -27.977 234.08 -27.977 Q 234.58 -27.977 234.904 -27.933 Q 235.228 -27.889 235.404 -27.786 Q 235.581 -27.683 235.654 -27.536 Q 235.728 -27.389 235.728 -27.212 L 235.728 -23.006 Q 236.875 -24.682 237.846 -25.712 Q 238.817 -26.742 239.699 -27.315 Q 240.582 -27.889 241.42 -28.095 Q 242.259 -28.301 243.141 -28.301 Q 243.524 -28.301 244.024 -28.257 Q 244.524 -28.213 245.098 -28.095 Q 245.671 -27.977 246.127 -27.816 Q 246.583 -27.654 246.76 -27.521 Q 246.936 -27.389 246.995 -27.286 Q 247.054 -27.183 247.098 -27.021 Q 247.142 -26.859 247.157 -26.58 Q 247.172 -26.3 247.172 -25.859 Z M 270.645 -0.588 Q 270.645 -0.294 270.453 -0.132 Q 270.262 0.029 269.953 0.103 Q 269.644 0.177 269.115 0.177 Q 268.615 0.177 268.262 0.103 Q 267.909 0.029 267.717 -0.132 Q 267.526 -0.294 267.526 -0.588 L 267.526 -3.56 Q 265.732 -1.618 263.569 -0.559 Q 261.407 0.5 259.083 0.5 Q 256.994 0.5 255.332 -0.044 Q 253.67 -0.588 252.523 -1.603 Q 251.375 -2.618 250.757 -4.06 Q 250.14 -5.501 250.14 -7.296 Q 250.14 -9.502 251.052 -11.135 Q 251.964 -12.768 253.64 -13.856 Q 255.317 -14.945 257.671 -15.489 Q 260.024 -16.033 262.907 -16.033 L 267.144 -16.033 L 267.144 -18.328 Q 267.144 -20.034 266.791 -21.343 Q 266.438 -22.653 265.643 -23.535 Q 264.849 -24.418 263.584 -24.859 Q 262.319 -25.3 260.495 -25.3 Q 258.73 -25.3 257.318 -24.874 Q 255.906 -24.447 254.847 -23.918 Q 253.788 -23.388 253.096 -22.961 Q 252.405 -22.535 252.111 -22.535 Q 251.934 -22.535 251.787 -22.594 Q 251.64 -22.653 251.537 -22.814 Q 251.434 -22.976 251.39 -23.226 Q 251.346 -23.476 251.346 -23.829 Q 251.346 -24.447 251.434 -24.815 Q 251.522 -25.183 251.89 -25.55 Q 252.258 -25.918 253.199 -26.418 Q 254.141 -26.918 255.361 -27.345 Q 256.582 -27.771 257.994 -28.036 Q 259.407 -28.301 260.819 -28.301 Q 263.555 -28.301 265.437 -27.639 Q 267.32 -26.977 268.482 -25.742 Q 269.644 -24.506 270.144 -22.697 Q 270.645 -20.887 270.645 -18.593 Z M 267.144 -13.15 L 262.29 -13.15 Q 260.171 -13.15 258.583 -12.768 Q 256.994 -12.385 255.935 -11.65 Q 254.876 -10.914 254.361 -9.885 Q 253.846 -8.855 253.846 -7.531 Q 253.846 -5.237 255.303 -3.869 Q 256.759 -2.501 259.407 -2.501 Q 261.495 -2.501 263.305 -3.574 Q 265.114 -4.648 267.144 -6.884 Z M 298.944 -4.531 Q 298.944 -4.177 298.915 -3.898 Q 298.886 -3.619 298.827 -3.413 Q 298.768 -3.207 298.665 -3.045 Q 298.562 -2.883 298.18 -2.501 Q 297.797 -2.118 296.9 -1.53 Q 296.003 -0.941 294.885 -0.5 Q 293.767 -0.059 292.472 0.221 Q 291.178 0.5 289.795 0.5 Q 287.03 0.5 284.897 -0.427 Q 282.764 -1.353 281.323 -3.163 Q 279.881 -4.972 279.131 -7.605 Q 278.381 -10.238 278.381 -13.68 Q 278.381 -17.563 279.307 -20.328 Q 280.234 -23.094 281.852 -24.859 Q 283.47 -26.624 285.632 -27.463 Q 287.795 -28.301 290.266 -28.301 Q 291.59 -28.301 292.796 -28.051 Q 294.002 -27.801 295.017 -27.389 Q 296.032 -26.977 296.826 -26.448 Q 297.621 -25.918 297.988 -25.55 Q 298.356 -25.183 298.488 -24.991 Q 298.621 -24.8 298.694 -24.565 Q 298.768 -24.329 298.797 -24.05 Q 298.827 -23.77 298.827 -23.388 Q 298.827 -22.535 298.577 -22.197 Q 298.327 -21.858 298.032 -21.858 Q 297.621 -21.858 297.017 -22.388 Q 296.414 -22.917 295.473 -23.55 Q 294.532 -24.182 293.193 -24.712 Q 291.854 -25.241 290.001 -25.241 Q 286.177 -25.241 284.103 -22.3 Q 282.029 -19.358 282.029 -13.797 Q 282.029 -11.003 282.588 -8.899 Q 283.146 -6.796 284.191 -5.398 Q 285.235 -4.001 286.736 -3.31 Q 288.236 -2.618 290.119 -2.618 Q 291.884 -2.618 293.237 -3.177 Q 294.59 -3.736 295.591 -4.413 Q 296.591 -5.089 297.253 -5.648 Q 297.915 -6.207 298.238 -6.207 Q 298.415 -6.207 298.547 -6.104 Q 298.68 -6.001 298.768 -5.781 Q 298.856 -5.56 298.9 -5.251 Q 298.944 -4.942 298.944 -4.531 Z M 326.273 -0.647 Q 326.273 -0.441 326.185 -0.294 Q 326.097 -0.147 325.891 -0.044 Q 325.685 0.059 325.332 0.118 Q 324.979 0.177 324.42 0.177 Q 323.832 0.177 323.449 0.132 Q 323.067 0.088 322.787 0 Q 322.508 -0.088 322.316 -0.235 Q 322.125 -0.382 321.949 -0.588 L 309.475 -15.71 L 309.475 -0.588 Q 309.475 -0.412 309.387 -0.265 Q 309.299 -0.118 309.107 -0.029 Q 308.916 0.059 308.578 0.118 Q 308.24 0.177 307.71 0.177 Q 307.21 0.177 306.872 0.118 Q 306.533 0.059 306.327 -0.029 Q 306.121 -0.118 306.048 -0.265 Q 305.974 -0.412 305.974 -0.588 L 305.974 -40.245 Q 305.974 -40.422 306.048 -40.569 Q 306.121 -40.716 306.327 -40.819 Q 306.533 -40.922 306.872 -40.966 Q 307.21 -41.01 307.71 -41.01 Q 308.24 -41.01 308.578 -40.966 Q 308.916 -40.922 309.107 -40.819 Q 309.299 -40.716 309.387 -40.569 Q 309.475 -40.422 309.475 -40.245 L 309.475 -15.769 L 320.684 -27.095 Q 320.919 -27.36 321.169 -27.521 Q 321.419 -27.683 321.713 -27.786 Q 322.008 -27.889 322.39 -27.933 Q 322.772 -27.977 323.273 -27.977 Q 323.773 -27.977 324.14 -27.948 Q 324.508 -27.919 324.744 -27.83 Q 324.979 -27.742 325.097 -27.61 Q 325.214 -27.477 325.214 -27.271 Q 325.214 -26.977 325.038 -26.698 Q 324.861 -26.418 324.42 -25.977 L 313.77 -15.916 L 325.597 -1.795 Q 325.979 -1.353 326.126 -1.118 Q 326.273 -0.883 326.273 -0.647 Z M 369.727 -14.18 Q 369.727 -11.003 368.904 -8.326 Q 368.08 -5.648 366.447 -3.677 Q 364.814 -1.706 362.373 -0.603 Q 359.931 0.5 356.695 0.5 Q 353.576 0.5 351.238 -0.485 Q 348.899 -1.471 347.325 -3.31 Q 345.751 -5.148 344.971 -7.767 Q 344.192 -10.385 344.192 -13.68 Q 344.192 -16.857 345.001 -19.534 Q 345.81 -22.211 347.442 -24.168 Q 349.075 -26.124 351.517 -27.212 Q 353.959 -28.301 357.224 -28.301 Q 360.343 -28.301 362.681 -27.33 Q 365.02 -26.359 366.579 -24.521 Q 368.139 -22.682 368.933 -20.064 Q 369.727 -17.445 369.727 -14.18 Z M 366.021 -13.856 Q 366.021 -16.122 365.579 -18.181 Q 365.138 -20.24 364.108 -21.814 Q 363.079 -23.388 361.343 -24.315 Q 359.607 -25.241 357.018 -25.241 Q 354.635 -25.241 352.9 -24.388 Q 351.164 -23.535 350.061 -22.02 Q 348.958 -20.505 348.428 -18.446 Q 347.898 -16.386 347.898 -14.003 Q 347.898 -11.709 348.34 -9.635 Q 348.781 -7.561 349.811 -6.001 Q 350.84 -4.442 352.576 -3.53 Q 354.312 -2.618 356.901 -2.618 Q 359.284 -2.618 361.019 -3.471 Q 362.755 -4.325 363.858 -5.825 Q 364.961 -7.325 365.491 -9.385 Q 366.021 -11.444 366.021 -13.856 Z M 391.376 -38.568 Q 391.376 -38.156 391.331 -37.906 Q 391.287 -37.656 391.214 -37.509 Q 391.14 -37.362 391.037 -37.303 Q 390.934 -37.244 390.787 -37.244 Q 390.552 -37.244 390.228 -37.391 Q 389.905 -37.539 389.419 -37.715 Q 388.934 -37.892 388.272 -38.039 Q 387.61 -38.186 386.727 -38.186 Q 385.492 -38.186 384.639 -37.789 Q 383.785 -37.391 383.256 -36.524 Q 382.726 -35.656 382.506 -34.288 Q 382.285 -32.92 382.285 -30.978 L 382.285 -27.83 L 388.816 -27.83 Q 389.022 -27.83 389.169 -27.742 Q 389.316 -27.654 389.434 -27.463 Q 389.552 -27.271 389.61 -26.992 Q 389.669 -26.712 389.669 -26.33 Q 389.669 -25.594 389.434 -25.227 Q 389.199 -24.859 388.816 -24.859 L 382.285 -24.859 L 382.285 -0.588 Q 382.285 -0.412 382.197 -0.265 Q 382.109 -0.118 381.917 -0.029 Q 381.726 0.059 381.373 0.118 Q 381.02 0.177 380.52 0.177 Q 380.02 0.177 379.682 0.118 Q 379.343 0.059 379.137 -0.029 Q 378.931 -0.118 378.858 -0.265 Q 378.784 -0.412 378.784 -0.588 L 378.784 -24.859 L 374.783 -24.859 Q 374.371 -24.859 374.151 -25.227 Q 373.93 -25.594 373.93 -26.33 Q 373.93 -26.712 373.989 -26.992 Q 374.048 -27.271 374.151 -27.463 Q 374.254 -27.654 374.416 -27.742 Q 374.577 -27.83 374.783 -27.83 L 378.784 -27.83 L 378.784 -30.86 Q 378.784 -33.655 379.284 -35.626 Q 379.785 -37.597 380.799 -38.833 Q 381.814 -40.069 383.344 -40.627 Q 384.874 -41.186 386.904 -41.186 Q 387.904 -41.186 388.846 -40.995 Q 389.787 -40.804 390.272 -40.583 Q 390.758 -40.363 390.92 -40.201 Q 391.081 -40.039 391.184 -39.804 Q 391.287 -39.568 391.331 -39.26 Q 391.376 -38.951 391.376 -38.568 Z M 419.561 0 L 415.854 9.973 Q 415.707 10.297 415.237 10.517 Q 414.766 10.738 413.736 10.738 Q 413.207 10.738 412.854 10.679 Q 412.501 10.62 412.309 10.458 Q 412.118 10.297 412.089 10.047 Q 412.059 9.796 412.206 9.443 L 415.972 0 Q 415.737 -0.088 415.56 -0.294 Q 415.384 -0.5 415.325 -0.706 L 405.646 -26.683 Q 405.499 -27.095 405.499 -27.345 Q 405.499 -27.595 405.661 -27.742 Q 405.823 -27.889 406.19 -27.933 Q 406.558 -27.977 407.176 -27.977 Q 407.823 -27.977 408.205 -27.933 Q 408.588 -27.889 408.809 -27.801 Q 409.029 -27.713 409.132 -27.566 Q 409.235 -27.418 409.323 -27.212 L 417.649 -3.972 L 417.767 -3.972 L 425.945 -27.212 Q 426.092 -27.624 426.342 -27.757 Q 426.592 -27.889 427.004 -27.933 Q 427.416 -27.977 428.004 -27.977 Q 428.563 -27.977 428.931 -27.919 Q 429.299 -27.86 429.475 -27.713 Q 429.652 -27.566 429.652 -27.315 Q 429.652 -27.065 429.505 -26.683 Z M 458.597 -14.18 Q 458.597 -11.003 457.773 -8.326 Q 456.95 -5.648 455.317 -3.677 Q 453.684 -1.706 451.242 -0.603 Q 448.801 0.5 445.565 0.5 Q 442.446 0.5 440.107 -0.485 Q 437.769 -1.471 436.195 -3.31 Q 434.621 -5.148 433.841 -7.767 Q 433.062 -10.385 433.062 -13.68 Q 433.062 -16.857 433.871 -19.534 Q 434.68 -22.211 436.312 -24.168 Q 437.945 -26.124 440.387 -27.212 Q 442.829 -28.301 446.094 -28.301 Q 449.212 -28.301 451.551 -27.33 Q 453.89 -26.359 455.449 -24.521 Q 457.009 -22.682 457.803 -20.064 Q 458.597 -17.445 458.597 -14.18 Z M 454.89 -13.856 Q 454.89 -16.122 454.449 -18.181 Q 454.008 -20.24 452.978 -21.814 Q 451.948 -23.388 450.213 -24.315 Q 448.477 -25.241 445.888 -25.241 Q 443.505 -25.241 441.77 -24.388 Q 440.034 -23.535 438.931 -22.02 Q 437.827 -20.505 437.298 -18.446 Q 436.768 -16.386 436.768 -14.003 Q 436.768 -11.709 437.21 -9.635 Q 437.651 -7.561 438.681 -6.001 Q 439.71 -4.442 441.446 -3.53 Q 443.182 -2.618 445.77 -2.618 Q 448.153 -2.618 449.889 -3.471 Q 451.625 -4.325 452.728 -5.825 Q 453.831 -7.325 454.361 -9.385 Q 454.89 -11.444 454.89 -13.856 Z M 487.928 -0.588 Q 487.928 -0.412 487.854 -0.265 Q 487.781 -0.118 487.575 -0.029 Q 487.369 0.059 487.045 0.118 Q 486.722 0.177 486.251 0.177 Q 485.721 0.177 485.398 0.118 Q 485.074 0.059 484.898 -0.029 Q 484.721 -0.118 484.647 -0.265 Q 484.574 -0.412 484.574 -0.588 L 484.574 -4.354 Q 482.279 -1.795 480.088 -0.647 Q 477.896 0.5 475.719 0.5 Q 473.101 0.5 471.306 -0.382 Q 469.511 -1.265 468.408 -2.78 Q 467.305 -4.295 466.82 -6.296 Q 466.334 -8.296 466.334 -11.12 L 466.334 -27.212 Q 466.334 -27.389 466.408 -27.536 Q 466.481 -27.683 466.687 -27.786 Q 466.893 -27.889 467.231 -27.933 Q 467.57 -27.977 468.07 -27.977 Q 468.599 -27.977 468.938 -27.933 Q 469.276 -27.889 469.467 -27.786 Q 469.659 -27.683 469.747 -27.536 Q 469.835 -27.389 469.835 -27.212 L 469.835 -11.444 Q 469.835 -8.973 470.218 -7.414 Q 470.6 -5.854 471.365 -4.751 Q 472.13 -3.648 473.321 -3.045 Q 474.513 -2.442 476.101 -2.442 Q 478.131 -2.442 480.146 -3.883 Q 482.162 -5.325 484.427 -8.12 L 484.427 -27.212 Q 484.427 -27.389 484.5 -27.536 Q 484.574 -27.683 484.78 -27.786 Q 484.986 -27.889 485.324 -27.933 Q 485.662 -27.977 486.192 -27.977 Q 486.692 -27.977 487.03 -27.933 Q 487.369 -27.889 487.56 -27.786 Q 487.751 -27.683 487.839 -27.536 Q 487.928 -27.389 487.928 -27.212 Z M 512.519 -25.859 Q 512.519 -25.418 512.49 -25.109 Q 512.46 -24.8 512.387 -24.609 Q 512.313 -24.418 512.21 -24.315 Q 512.107 -24.212 511.931 -24.212 Q 511.666 -24.212 511.313 -24.344 Q 510.96 -24.477 510.489 -24.624 Q 510.019 -24.771 509.46 -24.903 Q 508.901 -25.035 508.224 -25.035 Q 507.43 -25.035 506.665 -24.697 Q 505.9 -24.359 505.062 -23.609 Q 504.223 -22.858 503.296 -21.623 Q 502.37 -20.387 501.252 -18.593 L 501.252 -0.588 Q 501.252 -0.412 501.164 -0.265 Q 501.075 -0.118 500.884 -0.029 Q 500.693 0.059 500.355 0.118 Q 500.016 0.177 499.487 0.177 Q 498.987 0.177 498.648 0.118 Q 498.31 0.059 498.104 -0.029 Q 497.898 -0.118 497.825 -0.265 Q 497.751 -0.412 497.751 -0.588 L 497.751 -27.212 Q 497.751 -27.389 497.825 -27.536 Q 497.898 -27.683 498.104 -27.786 Q 498.31 -27.889 498.619 -27.933 Q 498.928 -27.977 499.428 -27.977 Q 499.928 -27.977 500.252 -27.933 Q 500.575 -27.889 500.752 -27.786 Q 500.928 -27.683 501.002 -27.536 Q 501.075 -27.389 501.075 -27.212 L 501.075 -23.006 Q 502.223 -24.682 503.194 -25.712 Q 504.164 -26.742 505.047 -27.315 Q 505.929 -27.889 506.768 -28.095 Q 507.606 -28.301 508.489 -28.301 Q 508.871 -28.301 509.371 -28.257 Q 509.872 -28.213 510.445 -28.095 Q 511.019 -27.977 511.475 -27.816 Q 511.931 -27.654 512.107 -27.521 Q 512.284 -27.389 512.343 -27.286 Q 512.402 -27.183 512.446 -27.021 Q 512.49 -26.859 512.505 -26.58 Q 512.519 -26.3 512.519 -25.859 Z M 570.093 -0.588 Q 570.093 -0.412 570.005 -0.265 Q 569.917 -0.118 569.725 -0.029 Q 569.534 0.059 569.196 0.118 Q 568.858 0.177 568.357 0.177 Q 567.828 0.177 567.49 0.118 Q 567.151 0.059 566.945 -0.029 Q 566.739 -0.118 566.666 -0.265 Q 566.592 -0.412 566.592 -0.588 L 566.592 -16.975 Q 566.592 -18.858 566.254 -20.402 Q 565.916 -21.946 565.195 -23.05 Q 564.474 -24.153 563.371 -24.756 Q 562.268 -25.359 560.767 -25.359 Q 558.914 -25.359 557.016 -23.918 Q 555.119 -22.476 552.854 -19.681 L 552.854 -0.588 Q 552.854 -0.412 552.765 -0.265 Q 552.677 -0.118 552.486 -0.029 Q 552.295 0.059 551.956 0.118 Q 551.618 0.177 551.118 0.177 Q 550.618 0.177 550.28 0.118 Q 549.941 0.059 549.735 -0.029 Q 549.529 -0.118 549.456 -0.265 Q 549.382 -0.412 549.382 -0.588 L 549.382 -16.975 Q 549.382 -18.858 549.029 -20.402 Q 548.676 -21.946 547.955 -23.05 Q 547.235 -24.153 546.131 -24.756 Q 545.028 -25.359 543.528 -25.359 Q 541.675 -25.359 539.777 -23.918 Q 537.879 -22.476 535.644 -19.681 L 535.644 -0.588 Q 535.644 -0.412 535.555 -0.265 Q 535.467 -0.118 535.276 -0.029 Q 535.085 0.059 534.746 0.118 Q 534.408 0.177 533.879 0.177 Q 533.378 0.177 533.04 0.118 Q 532.702 0.059 532.496 -0.029 Q 532.29 -0.118 532.216 -0.265 Q 532.143 -0.412 532.143 -0.588 L 532.143 -27.212 Q 532.143 -27.389 532.216 -27.536 Q 532.29 -27.683 532.496 -27.786 Q 532.702 -27.889 533.011 -27.933 Q 533.32 -27.977 533.82 -27.977 Q 534.32 -27.977 534.643 -27.933 Q 534.967 -27.889 535.144 -27.786 Q 535.32 -27.683 535.394 -27.536 Q 535.467 -27.389 535.467 -27.212 L 535.467 -23.447 Q 537.762 -26.006 539.821 -27.154 Q 541.88 -28.301 543.91 -28.301 Q 545.587 -28.301 546.896 -27.904 Q 548.206 -27.507 549.206 -26.786 Q 550.206 -26.065 550.912 -25.065 Q 551.618 -24.065 552.059 -22.858 Q 553.442 -24.388 554.663 -25.433 Q 555.884 -26.477 556.987 -27.11 Q 558.09 -27.742 559.12 -28.021 Q 560.15 -28.301 561.15 -28.301 Q 563.65 -28.301 565.371 -27.418 Q 567.092 -26.536 568.137 -25.035 Q 569.181 -23.535 569.637 -21.535 Q 570.093 -19.534 570.093 -17.298 Z M 603.363 -14.18 Q 603.363 -11.003 602.539 -8.326 Q 601.716 -5.648 600.083 -3.677 Q 598.45 -1.706 596.008 -0.603 Q 593.567 0.5 590.331 0.5 Q 587.212 0.5 584.873 -0.485 Q 582.535 -1.471 580.961 -3.31 Q 579.387 -5.148 578.607 -7.767 Q 577.828 -10.385 577.828 -13.68 Q 577.828 -16.857 578.637 -19.534 Q 579.446 -22.211 581.078 -24.168 Q 582.711 -26.124 585.153 -27.212 Q 587.595 -28.301 590.86 -28.301 Q 593.978 -28.301 596.317 -27.33 Q 598.656 -26.359 600.215 -24.521 Q 601.774 -22.682 602.569 -20.064 Q 603.363 -17.445 603.363 -14.18 Z M 599.656 -13.856 Q 599.656 -16.122 599.215 -18.181 Q 598.774 -20.24 597.744 -21.814 Q 596.714 -23.388 594.979 -24.315 Q 593.243 -25.241 590.654 -25.241 Q 588.271 -25.241 586.536 -24.388 Q 584.8 -23.535 583.697 -22.02 Q 582.593 -20.505 582.064 -18.446 Q 581.534 -16.386 581.534 -14.003 Q 581.534 -11.709 581.976 -9.635 Q 582.417 -7.561 583.447 -6.001 Q 584.476 -4.442 586.212 -3.53 Q 587.948 -2.618 590.536 -2.618 Q 592.919 -2.618 594.655 -3.471 Q 596.391 -4.325 597.494 -5.825 Q 598.597 -7.325 599.127 -9.385 Q 599.656 -11.444 599.656 -13.856 Z M 631.313 -27.271 Q 631.313 -27.183 631.298 -27.08 Q 631.283 -26.977 631.269 -26.889 Q 631.254 -26.801 631.224 -26.698 Q 631.195 -26.595 631.166 -26.506 L 621.516 -0.588 Q 621.428 -0.353 621.251 -0.206 Q 621.075 -0.059 620.81 0.029 Q 620.545 0.118 620.178 0.147 Q 619.81 0.177 619.31 0.177 Q 618.81 0.177 618.427 0.132 Q 618.045 0.088 617.78 0 Q 617.515 -0.088 617.339 -0.235 Q 617.162 -0.382 617.074 -0.588 L 607.425 -26.506 Q 607.336 -26.742 607.292 -26.889 Q 607.248 -27.036 607.233 -27.124 Q 607.219 -27.212 607.219 -27.271 Q 607.219 -27.477 607.307 -27.624 Q 607.395 -27.771 607.586 -27.845 Q 607.778 -27.919 608.101 -27.948 Q 608.425 -27.977 608.896 -27.977 Q 609.543 -27.977 609.925 -27.933 Q 610.308 -27.889 610.528 -27.801 Q 610.749 -27.713 610.852 -27.566 Q 610.955 -27.418 611.043 -27.212 L 619.369 -3.972 L 619.427 -3.824 L 619.486 -3.972 L 627.665 -27.212 Q 627.724 -27.418 627.841 -27.566 Q 627.959 -27.713 628.18 -27.801 Q 628.4 -27.889 628.768 -27.933 Q 629.136 -27.977 629.724 -27.977 Q 630.195 -27.977 630.504 -27.948 Q 630.813 -27.919 630.989 -27.83 Q 631.166 -27.742 631.239 -27.61 Q 631.313 -27.477 631.313 -27.271 Z M 640.93 -0.588 Q 640.93 -0.412 640.842 -0.265 Q 640.754 -0.118 640.562 -0.029 Q 640.371 0.059 640.033 0.118 Q 639.695 0.177 639.165 0.177 Q 638.665 0.177 638.327 0.118 Q 637.988 0.059 637.782 -0.029 Q 637.576 -0.118 637.503 -0.265 Q 637.429 -0.412 637.429 -0.588 L 637.429 -27.212 Q 637.429 -27.389 637.503 -27.536 Q 637.576 -27.683 637.782 -27.786 Q 637.988 -27.889 638.327 -27.933 Q 638.665 -27.977 639.165 -27.977 Q 639.695 -27.977 640.033 -27.933 Q 640.371 -27.889 640.562 -27.786 Q 640.754 -27.683 640.842 -27.536 Q 640.93 -27.389 640.93 -27.212 Z M 641.46 -36.185 Q 641.46 -34.773 640.96 -34.273 Q 640.459 -33.773 639.136 -33.773 Q 637.841 -33.773 637.356 -34.258 Q 636.87 -34.744 636.87 -36.156 Q 636.87 -37.568 637.37 -38.068 Q 637.871 -38.568 639.194 -38.568 Q 640.489 -38.568 640.974 -38.083 Q 641.46 -37.597 641.46 -36.185 Z M 672.436 -15.268 Q 672.436 -14.209 671.878 -13.812 Q 671.319 -13.415 670.789 -13.415 L 652.638 -13.415 Q 652.638 -10.944 653.123 -8.943 Q 653.608 -6.943 654.726 -5.516 Q 655.844 -4.089 657.639 -3.324 Q 659.433 -2.559 662.052 -2.559 Q 663.905 -2.559 665.376 -2.883 Q 666.847 -3.207 667.921 -3.604 Q 668.994 -4.001 669.686 -4.325 Q 670.377 -4.648 670.671 -4.648 Q 670.848 -4.648 670.995 -4.56 Q 671.142 -4.472 671.23 -4.28 Q 671.319 -4.089 671.363 -3.795 Q 671.407 -3.501 671.407 -3.06 Q 671.407 -2.854 671.377 -2.662 Q 671.348 -2.471 671.304 -2.309 Q 671.26 -2.148 671.171 -2 Q 671.083 -1.853 670.936 -1.706 Q 670.789 -1.559 670.024 -1.191 Q 669.259 -0.824 668.024 -0.456 Q 666.788 -0.088 665.155 0.206 Q 663.523 0.5 661.64 0.5 Q 658.551 0.5 656.168 -0.427 Q 653.785 -1.353 652.167 -3.163 Q 650.549 -4.972 649.71 -7.649 Q 648.872 -10.326 648.872 -13.856 Q 648.872 -17.239 649.74 -19.917 Q 650.608 -22.594 652.226 -24.462 Q 653.844 -26.33 656.124 -27.315 Q 658.404 -28.301 661.198 -28.301 Q 664.199 -28.301 666.317 -27.301 Q 668.436 -26.3 669.803 -24.609 Q 671.171 -22.917 671.804 -20.681 Q 672.436 -18.446 672.436 -15.974 Z M 668.818 -16.298 Q 668.906 -20.534 666.876 -22.917 Q 664.846 -25.3 660.963 -25.3 Q 658.963 -25.3 657.448 -24.55 Q 655.932 -23.8 654.888 -22.564 Q 653.844 -21.329 653.285 -19.696 Q 652.726 -18.063 652.638 -16.298 Z M 696.149 -7.678 Q 696.149 -5.766 695.443 -4.251 Q 694.737 -2.736 693.428 -1.677 Q 692.119 -0.618 690.295 -0.059 Q 688.471 0.5 686.264 0.5 Q 684.882 0.5 683.646 0.279 Q 682.41 0.059 681.41 -0.279 Q 680.41 -0.618 679.719 -1 Q 679.027 -1.383 678.704 -1.677 Q 678.38 -1.971 678.233 -2.412 Q 678.086 -2.854 678.086 -3.589 Q 678.086 -3.972 678.145 -4.266 Q 678.203 -4.56 678.292 -4.766 Q 678.38 -4.972 678.527 -5.075 Q 678.674 -5.178 678.851 -5.178 Q 679.174 -5.178 679.792 -4.766 Q 680.41 -4.354 681.337 -3.869 Q 682.263 -3.383 683.543 -2.971 Q 684.823 -2.559 686.5 -2.559 Q 687.853 -2.559 688.971 -2.854 Q 690.089 -3.148 690.912 -3.736 Q 691.736 -4.325 692.192 -5.251 Q 692.648 -6.178 692.648 -7.414 Q 692.648 -8.649 692.06 -9.502 Q 691.471 -10.355 690.515 -10.988 Q 689.559 -11.62 688.338 -12.106 Q 687.117 -12.591 685.838 -13.106 Q 684.558 -13.621 683.337 -14.239 Q 682.116 -14.857 681.16 -15.739 Q 680.204 -16.622 679.616 -17.857 Q 679.027 -19.093 679.027 -20.829 Q 679.027 -22.211 679.557 -23.55 Q 680.086 -24.888 681.19 -25.947 Q 682.293 -27.007 684.014 -27.654 Q 685.735 -28.301 688.088 -28.301 Q 689.088 -28.301 690.074 -28.139 Q 691.06 -27.977 691.869 -27.713 Q 692.678 -27.448 693.266 -27.139 Q 693.854 -26.83 694.163 -26.595 Q 694.472 -26.359 694.575 -26.198 Q 694.678 -26.036 694.722 -25.859 Q 694.766 -25.683 694.796 -25.433 Q 694.825 -25.183 694.825 -24.83 Q 694.825 -24.477 694.781 -24.197 Q 694.737 -23.918 694.649 -23.712 Q 694.56 -23.506 694.428 -23.403 Q 694.296 -23.3 694.119 -23.3 Q 693.884 -23.3 693.413 -23.623 Q 692.942 -23.947 692.177 -24.329 Q 691.413 -24.712 690.353 -25.035 Q 689.294 -25.359 687.912 -25.359 Q 686.529 -25.359 685.485 -25.035 Q 684.44 -24.712 683.764 -24.123 Q 683.087 -23.535 682.749 -22.741 Q 682.41 -21.946 682.41 -21.005 Q 682.41 -19.711 682.999 -18.828 Q 683.587 -17.946 684.558 -17.298 Q 685.529 -16.651 686.764 -16.151 Q 688 -15.651 689.28 -15.151 Q 690.559 -14.651 691.795 -14.048 Q 693.031 -13.444 694.001 -12.591 Q 694.972 -11.738 695.561 -10.547 Q 696.149 -9.355 696.149 -7.678 Z" transform="matrix(3.172658, 0, 0, 3.277993, 758.95636, 632.580566)" style="fill: rgb(255, 255, 255); line-height: 65.1212px; white-space: pre;"/>
      </g>
    </g>
    <path d="M 593.007 349.983 L 593.007 39.267 L 657.827 39.267 L 657.827 177.245 L 788.779 39.267 L 875.935 39.267 L 755.055 160.29 L 882.505 349.983 L 798.634 349.983 L 710.383 204.162 L 657.827 256.09 L 657.827 349.983 L 593.007 349.983 Z" style="fill: rgb(51, 50, 92); white-space: pre;"/>
  </g>
</svg>