<svg width="11" height="19" viewBox="0 0 11 19" fill="none" xmlns="http://www.w3.org/2000/svg">
<path d="M2.17972 0.375989L10.7212 8.79815C10.8226 8.89842 10.8945 9.00704 10.9371 9.12401C10.9797 9.24099 11.0007 9.36631 11 9.5C11 9.63369 10.979 9.75902 10.9371 9.87599C10.8952 9.99296 10.8232 10.1016 10.7212 10.2018L2.17972 18.6491C1.94316 18.883 1.64746 19 1.29262 19C0.937786 19 0.63364 18.8747 0.380184 18.624C0.126728 18.3733 8.0349e-08 18.0809 1.09567e-07 17.7467C1.38785e-07 17.4125 0.126728 17.1201 0.380184 16.8694L7.83179 9.5L0.380186 2.13061C0.143627 1.89666 0.0253464 1.60823 0.0253464 1.26533C0.0253464 0.922428 0.152075 0.62598 0.405531 0.375989C0.658987 0.125329 0.954685 -8.78189e-07 1.29263 -8.48646e-07C1.63057 -8.19102e-07 1.92627 0.12533 2.17972 0.375989Z" fill="white"/>
</svg>
