<svg width="24px" height="24px" viewBox="0 0 24 24" xmlns="http://www.w3.org/2000/svg">
  <path fill-rule="evenodd" d="M5,22 C3.34314575,22 2,20.6568542 2,19 L2,13 C2,11.3431458 3.34314575,10 5,10 L6.381,10 L9.5527864,3.65835921 C10.0310697,2.70179255 10.9793773,2.07682556 12.0366421,2.00660995 L12.236068,2 L12.5,2 C13.8254834,2 14.9100387,3.03153594 14.9946823,4.33562431 L15,4.5 L15,10 L18.998258,10 C19.195814,10 19.3928864,10.0195141 19.586606,10.058258 C21.153261,10.371589 22.1889467,11.8523795 21.9695761,13.4145 L21.94,13.5883484 L20.74,19.5883484 C20.4712311,20.932193 19.3292541,21.915203 17.9759236,21.9947874 L17.798258,22 L5,22 Z M6,12 L5,12 C4.44771525,12 4,12.4477153 4,13 L4,19 C4,19.5522847 4.44771525,20 5,20 L6,20 L6,12 Z M12.5,4 L12.236068,4 C11.8993817,4 11.5883815,4.1690883 11.4044575,4.44460233 L11.3416408,4.5527864 L8.10557281,11.0249224 C8.05350202,11.1290639 8.02015271,11.2412254 8.00673248,11.3562914 L8,11.472136 L8,20 L17.798258,20 C18.2352156,20 18.6164915,19.7172804 18.7490101,19.3101248 L18.778839,19.1961161 L19.978839,13.1961161 C20.087151,12.6545564 19.7359338,12.1277313 19.194374,12.0194193 L19.0967956,12.0048667 L19.0967956,12.0048667 L18.998258,12 L15,12 C13.9456382,12 13.0818349,11.1841222 13.0054857,10.1492623 L13,10 L13,4.5 C13,4.25454011 12.8231248,4.05039163 12.5898756,4.00805567 L12.5,4 Z"/>
</svg>
